<?xml version="1.0" encoding="UTF-8"?>
<svg id="Layer_1" data-name="Layer 1" xmlns="http://www.w3.org/2000/svg" viewBox="0 0 206.17 36">
  <defs>
    <style>
      .cls-1 {
        fill: #bb912e;
      }

      .cls-1, .cls-2, .cls-3, .cls-4, .cls-5, .cls-6, .cls-7, .cls-8, .cls-9, .cls-10, .cls-11 {
        fill-rule: evenodd;
      }

      .cls-2 {
        fill: #b48c30;
      }

      .cls-3 {
        fill: #bc922d;
      }

      .cls-4 {
        fill: #b68e2f;
      }

      .cls-12 {
        fill: #fff;
      }

      .cls-5 {
        fill: #0a0a0a;
      }

      .cls-6 {
        fill: #0b0b0b;
      }

      .cls-7 {
        fill: #b9902e;
      }

      .cls-8 {
        fill: #080808;
      }

      .cls-9 {
        fill: #b88f2f;
      }

      .cls-10 {
        fill: #bc912d;
      }

      .cls-11 {
        fill: #b8902e;
      }
    </style>
  </defs>
  <g>
    <path class="cls-12" d="M49.83,11.48c0,.81-.19,1.54-.56,2.18s-.84,1.14-1.41,1.48c-.43.26-.89.44-1.4.54s-1.11.15-1.81.15h-3.08V7.11h3.16c.71,0,1.32.06,1.84.18s.95.29,1.3.51c.6.37,1.08.86,1.42,1.48s.52,1.36.52,2.2ZM47.51,11.47c0-.57-.1-1.07-.31-1.47s-.54-.73-.99-.96c-.23-.11-.47-.19-.71-.23s-.6-.06-1.09-.06h-.57v5.46h.57c.53,0,.93-.02,1.18-.07s.49-.14.73-.27c.41-.23.71-.55.9-.94s.29-.88.29-1.46Z"/>
    <path class="cls-12" d="M55.42,15.14c-.11.09-.25.19-.42.31s-.33.22-.47.29c-.21.09-.42.16-.65.21s-.47.07-.73.07c-.62,0-1.15-.19-1.57-.58s-.63-.88-.63-1.48c0-.48.11-.87.32-1.18s.52-.55.91-.72c.39-.18.88-.3,1.45-.38s1.18-.13,1.8-.16v-.03c0-.36-.15-.61-.44-.75s-.73-.21-1.31-.21c-.35,0-.72.06-1.11.18s-.68.22-.85.28h-.19v-1.59c.22-.06.58-.13,1.09-.21s1.01-.12,1.51-.12c1.2,0,2.06.18,2.6.55s.8.95.8,1.74v4.48h-2.09s0-.7,0-.7ZM55.42,14.12v-1.37c-.28.02-.59.06-.93.1-.33.04-.58.09-.76.14-.21.07-.37.16-.48.29s-.17.29-.17.5c0,.14.01.25.03.33.02.09.08.17.18.25.09.08.2.14.32.17s.32.06.59.06c.21,0,.42-.04.64-.13.22-.09.41-.2.57-.34Z"/>
    <path class="cls-12" d="M66.06,15.84h-2.11v-3.26c0-.27-.01-.53-.04-.79s-.07-.46-.14-.58c-.08-.15-.19-.25-.34-.32s-.36-.1-.63-.1c-.19,0-.39.03-.58.09s-.41.16-.64.3v4.66h-2.12v-6.58h2.12v.73c.38-.29.73-.52,1.08-.67s.73-.23,1.15-.23c.71,0,1.26.21,1.67.62.4.41.6,1.03.6,1.86,0,0,0,4.28,0,4.28Z"/>
    <path class="cls-12" d="M73.72,13.75c0,.68-.31,1.23-.91,1.64s-1.44.62-2.5.62c-.59,0-1.12-.06-1.59-.16s-.86-.23-1.15-.36v-1.73h.19c.11.07.23.16.37.24s.33.18.59.28c.22.09.47.17.74.23s.57.1.89.1c.41,0,.72-.05.92-.14s.3-.23.3-.41c0-.16-.06-.28-.18-.35s-.34-.14-.67-.21c-.16-.03-.37-.07-.64-.11s-.51-.09-.73-.15c-.6-.16-1.04-.4-1.33-.73s-.43-.74-.43-1.23c0-.63.3-1.16.9-1.58s1.42-.63,2.46-.63c.49,0,.96.05,1.42.15s.8.21,1.06.32v1.66h-.18c-.31-.22-.67-.39-1.07-.52s-.81-.2-1.22-.2c-.34,0-.63.05-.86.14s-.35.23-.35.4c0,.16.05.27.16.36s.35.16.74.25c.21.04.45.08.69.13s.5.09.75.16c.56.15.96.37,1.23.68s.4.7.4,1.16Z"/>
    <path class="cls-12" d="M82.1,15.84h-2.46l-1.85-2.86-.57.7v2.16h-2.11V6.72h2.11v5.44l2.27-2.9h2.43l-2.36,2.84,2.53,3.74Z"/>
    <path class="cls-12" d="M89.65,12.94h-4.83c.03.52.23.91.59,1.18s.89.41,1.6.41c.44,0,.88-.08,1.29-.24s.75-.33.99-.52h.23v1.69c-.48.19-.93.33-1.35.42s-.89.13-1.4.13c-1.32,0-2.33-.3-3.04-.89s-1.06-1.44-1.06-2.54.33-1.95,1-2.58,1.58-.95,2.74-.95c1.07,0,1.88.27,2.41.81s.81,1.32.81,2.33v.74h0ZM87.55,11.7c-.01-.44-.12-.77-.33-1s-.53-.33-.97-.33c-.41,0-.74.1-1,.32s-.41.55-.44,1.01h2.74Z"/>
    <path class="cls-12" d="M103.42,15.84h-2.32l-.61-1.76h-3.23l-.61,1.76h-2.27l3.22-8.73h2.59l3.22,8.73ZM99.95,12.47l-1.07-3.12-1.07,3.12h2.15Z"/>
    <path class="cls-12" d="M109.32,11.27h-.19c-.09-.03-.23-.06-.43-.07s-.36-.02-.5-.02c-.3,0-.57.02-.79.06s-.48.1-.74.2v4.41h-2.11v-6.58h2.11v.97c.46-.4.87-.66,1.21-.79s.66-.2.95-.2c.07,0,.16,0,.25,0,.09,0,.18.01.25.02v2.01h0Z"/>
    <path class="cls-12" d="M114.73,15.78c-.23.06-.47.1-.72.14s-.56.05-.93.05c-.82,0-1.43-.17-1.83-.5s-.6-.9-.6-1.7v-3.08h-.87v-1.43h.87v-1.88h2.11v1.88h1.97v1.43h-1.97v2.33c0,.23,0,.43,0,.6,0,.17.04.33.09.46.06.14.15.25.29.33.14.08.34.12.6.12.11,0,.25-.02.43-.07s.3-.09.37-.13h.18v1.44h0Z"/>
    <path class="cls-12" d="M118.16,8.32h-2.23v-1.6h2.23v1.6ZM118.1,15.84h-2.11v-6.58h2.11v6.58Z"/>
    <path class="cls-12" d="M122.2,15.84h-2.11V6.72h2.11v9.12Z"/>
    <path class="cls-12" d="M126.3,15.84h-2.11V6.72h2.11v9.12Z"/>
    <path class="cls-12" d="M134.77,12.94h-4.83c.03.52.23.91.59,1.18s.89.41,1.6.41c.45,0,.88-.08,1.29-.24s.75-.33.99-.52h.23v1.69c-.48.19-.93.33-1.35.42s-.89.13-1.4.13c-1.32,0-2.33-.3-3.04-.89s-1.05-1.44-1.05-2.54.33-1.95,1-2.58,1.58-.95,2.74-.95c1.07,0,1.88.27,2.41.81s.81,1.32.81,2.33v.74ZM132.67,11.7c-.01-.44-.12-.77-.33-1s-.53-.33-.97-.33c-.41,0-.74.1-1,.32s-.41.55-.44,1.01h2.74Z"/>
    <path class="cls-12" d="M141.03,11.27h-.19c-.09-.03-.23-.06-.43-.07s-.37-.02-.5-.02c-.3,0-.57.02-.79.06s-.48.1-.74.2v4.41h-2.12v-6.58h2.12v.97c.46-.4.87-.66,1.21-.79s.66-.2.95-.2c.07,0,.16,0,.25,0,.09,0,.18.01.25.02v2.01h0Z"/>
    <path class="cls-12" d="M144.4,8.32h-2.23v-1.6h2.23v1.6ZM144.34,15.84h-2.12v-6.58h2.12v6.58Z"/>
    <path class="cls-12" d="M151.1,11.27h-.19c-.09-.03-.23-.06-.43-.07s-.37-.02-.5-.02c-.3,0-.57.02-.79.06s-.48.1-.74.2v4.41h-2.12v-6.58h2.12v.97c.46-.4.87-.66,1.21-.79s.66-.2.95-.2c.07,0,.16,0,.25,0,.09,0,.18.01.25.02v2.01h0Z"/>
    <path class="cls-12" d="M158.77,12.94h-4.83c.03.52.23.91.59,1.18s.89.41,1.6.41c.45,0,.88-.08,1.29-.24s.75-.33.99-.52h.23v1.69c-.48.19-.93.33-1.35.42s-.89.13-1.4.13c-1.32,0-2.33-.3-3.04-.89s-1.05-1.44-1.05-2.54.33-1.95,1-2.58,1.58-.95,2.74-.95c1.07,0,1.88.27,2.41.81s.81,1.32.81,2.33v.74ZM156.67,11.7c-.01-.44-.12-.77-.33-1s-.53-.33-.97-.33c-.41,0-.74.1-1,.32s-.41.55-.44,1.01h2.74Z"/>
    <path class="cls-12" d="M166.66,15.08c0,.62-.09,1.14-.26,1.56s-.42.75-.74.99c-.32.24-.7.42-1.15.52s-.95.16-1.51.16c-.46,0-.91-.03-1.35-.08s-.83-.12-1.15-.2v-1.65h.26c.26.1.57.19.94.28s.7.13.99.13c.39,0,.71-.04.95-.11s.43-.17.56-.31c.12-.12.21-.28.26-.48s.08-.43.08-.7v-.12c-.25.21-.54.37-.84.49s-.65.18-1.03.18c-.92,0-1.63-.28-2.13-.83s-.75-1.4-.75-2.53c0-.54.08-1.01.23-1.41.15-.4.37-.74.64-1.03.26-.27.57-.49.95-.64s.76-.23,1.16-.23c.35,0,.68.04.97.13s.55.2.79.35l.08-.29h2.05v5.82ZM164.54,13.76v-2.98c-.12-.05-.27-.09-.44-.12s-.33-.04-.47-.04c-.55,0-.97.16-1.24.48s-.41.76-.41,1.33c0,.63.12,1.07.35,1.32s.59.38,1.05.38c.21,0,.42-.03.62-.1.2-.07.39-.15.55-.26Z"/>
    <path class="cls-12" d="M170.82,8.32h-2.23v-1.6h2.23v1.6ZM170.77,15.84h-2.12v-6.58h2.12v6.58Z"/>
    <path class="cls-12" d="M179.18,11.17v4.66h-2.12v-3.29c0-.32,0-.59-.02-.82s-.06-.41-.13-.55-.18-.24-.32-.31-.34-.1-.6-.1c-.21,0-.41.04-.6.13s-.37.17-.53.27v4.66h-2.12v-6.58h2.12v.73c.36-.28.71-.51,1.04-.67s.7-.24,1.1-.24c.43,0,.82.1,1.15.29s.59.48.78.85c.42-.35.83-.64,1.23-.84s.79-.31,1.17-.31c.71,0,1.25.21,1.62.64s.55,1.04.55,1.84v4.28h-2.12v-3.29c0-.32,0-.6-.02-.82s-.06-.4-.13-.55c-.07-.14-.17-.24-.32-.31s-.35-.1-.61-.1c-.18,0-.35.03-.52.09s-.38.16-.62.3Z"/>
    <path class="cls-12" d="M191.93,12.94h-4.83c.03.52.23.91.59,1.18s.89.41,1.6.41c.45,0,.88-.08,1.29-.24s.75-.33.99-.52h.23v1.69c-.48.19-.93.33-1.35.42s-.89.13-1.4.13c-1.32,0-2.33-.3-3.04-.89s-1.05-1.44-1.05-2.54.33-1.95,1-2.58,1.58-.95,2.74-.95c1.07,0,1.88.27,2.41.81s.81,1.32.81,2.33v.74ZM189.83,11.7c-.01-.44-.12-.77-.33-1s-.53-.33-.97-.33c-.41,0-.74.1-1,.32s-.41.55-.44,1.01h2.74Z"/>
    <path class="cls-12" d="M200.03,15.84h-2.12v-3.26c0-.27-.01-.53-.04-.79s-.07-.46-.14-.58c-.08-.15-.19-.25-.34-.32s-.36-.1-.63-.1c-.19,0-.39.03-.58.09s-.41.16-.64.3v4.66h-2.12v-6.58h2.12v.73c.37-.29.73-.52,1.08-.67.35-.16.73-.23,1.15-.23.71,0,1.26.21,1.66.62.4.41.6,1.03.6,1.86v4.28h0Z"/>
    <path class="cls-12" d="M206.17,15.78c-.23.06-.47.1-.72.14s-.56.05-.93.05c-.82,0-1.43-.17-1.83-.5s-.6-.9-.6-1.7v-3.08h-.87v-1.43h.87v-1.88h2.12v1.88h1.97v1.43h-1.97v2.33c0,.23,0,.43,0,.6,0,.17.04.33.09.46.05.14.15.25.29.33.14.08.34.12.6.12.11,0,.25-.02.43-.07.18-.05.3-.09.37-.13h.18v1.44h0Z"/>
    <path class="cls-12" d="M43.89,27.81h-2.98v-1.12h2.98v1.12Z"/>
    <path class="cls-12" d="M52.29,27.58c0,.36-.06.69-.17.99-.11.3-.26.54-.44.73-.19.2-.4.36-.64.46s-.49.16-.76.16c-.25,0-.46-.03-.64-.08s-.35-.13-.53-.22v1.83h-1.41v-6h1.41v.46c.22-.17.44-.31.66-.42.22-.11.48-.16.78-.16.55,0,.97.2,1.27.6s.46.95.46,1.65ZM50.84,27.61c0-.43-.07-.74-.22-.93s-.38-.29-.69-.29c-.13,0-.27.02-.41.06-.14.04-.27.1-.4.17v2.2c.09.04.19.06.3.07.11,0,.21.02.31.02.37,0,.65-.11.83-.33.18-.22.27-.54.27-.98Z"/>
    <path class="cls-12" d="M54.72,29.84h-1.41v-6.08h1.41v6.08Z"/>
    <path class="cls-12" d="M57.49,24.83h-1.49v-1.07h1.49v1.07ZM57.45,29.84h-1.41v-4.39h1.41v4.39Z"/>
    <path class="cls-12" d="M63.04,29.33c0,.41-.06.76-.18,1.04s-.28.5-.49.66c-.21.16-.47.28-.76.35s-.63.11-1.01.11c-.31,0-.6-.02-.9-.06s-.55-.08-.77-.13v-1.1h.17c.17.07.38.13.63.19s.47.08.66.08c.26,0,.47-.02.63-.07s.29-.12.37-.21c.08-.08.14-.19.17-.32.04-.13.06-.29.06-.47v-.08c-.17.14-.36.25-.56.33-.21.08-.43.12-.69.12-.61,0-1.09-.19-1.42-.56-.33-.37-.5-.93-.5-1.69,0-.36.05-.67.15-.94.1-.26.24-.49.43-.69.17-.18.38-.32.63-.43s.51-.15.77-.15c.24,0,.45.03.65.08s.37.13.53.23l.05-.19h1.37s0,3.89,0,3.89ZM61.63,28.45v-1.99c-.08-.03-.18-.06-.3-.08-.12-.02-.22-.03-.31-.03-.37,0-.65.11-.83.32-.19.21-.28.51-.28.89,0,.42.08.72.24.88s.39.25.7.25c.14,0,.28-.02.41-.07.13-.05.26-.1.37-.18Z"/>
    <path class="cls-12" d="M67.18,29.8c-.15.04-.31.07-.48.09s-.38.03-.62.03c-.55,0-.95-.11-1.22-.33s-.4-.6-.4-1.14v-2.05h-.58v-.95h.58v-1.25h1.41v1.25h1.31v.95h-1.31v1.56c0,.15,0,.29,0,.4s.02.22.06.31c.04.09.1.16.19.22.09.05.23.08.4.08.07,0,.17-.02.29-.05s.2-.06.25-.09h.12v.96h0Z"/>
    <path class="cls-12" d="M72.34,27.9h-3.22c.02.34.15.61.39.79s.6.27,1.06.27c.3,0,.58-.05.86-.16s.5-.22.66-.34h.16v1.13c-.32.13-.62.22-.9.28s-.59.09-.93.09c-.88,0-1.56-.2-2.02-.59s-.7-.96-.7-1.69.22-1.3.67-1.72,1.05-.63,1.83-.63c.71,0,1.25.18,1.61.54s.54.88.54,1.56v.49h0ZM70.94,27.08c0-.29-.08-.52-.22-.66s-.35-.22-.64-.22c-.27,0-.49.07-.67.21s-.27.37-.29.68c0,0,1.82,0,1.82,0Z"/>
    <path class="cls-12" d="M77.73,29.84h-1.41v-2.17c0-.18,0-.35-.03-.53s-.05-.31-.09-.39c-.05-.1-.13-.17-.23-.21s-.24-.07-.42-.07c-.13,0-.26.02-.39.06s-.27.11-.43.2v3.11h-1.41v-4.39h1.41v.48c.25-.19.49-.35.72-.45s.49-.16.77-.16c.47,0,.84.14,1.11.41s.4.69.4,1.24v2.85Z"/>
    <path class="cls-12" d="M86.25,27.65c0,.72-.21,1.29-.63,1.71s-1.01.62-1.77.62-1.35-.21-1.77-.62-.63-.98-.63-1.71.21-1.3.64-1.71,1.01-.62,1.77-.62,1.36.21,1.78.62.63.99.63,1.71ZM84.52,28.71c.09-.11.16-.25.21-.4s.07-.38.07-.65c0-.26-.02-.47-.07-.65s-.11-.31-.19-.42c-.08-.11-.18-.18-.3-.23s-.24-.07-.38-.07-.26.02-.36.06-.21.11-.3.22c-.09.1-.15.24-.21.42s-.08.4-.08.67c0,.24.02.45.07.62s.11.32.19.42c.08.1.18.18.3.22s.25.07.4.07c.13,0,.25-.02.36-.06s.21-.12.3-.22Z"/>
    <path class="cls-12" d="M91.52,29.33c0,.41-.06.76-.18,1.04s-.28.5-.49.66c-.21.16-.46.28-.76.35s-.64.11-1.01.11c-.31,0-.61-.02-.9-.06s-.55-.08-.77-.13v-1.1h.17c.17.07.38.13.63.19s.47.08.66.08c.26,0,.47-.02.63-.07s.29-.12.37-.21c.08-.08.14-.19.18-.32.04-.13.06-.29.06-.47v-.08c-.17.14-.36.25-.56.33-.21.08-.43.12-.69.12-.61,0-1.09-.19-1.42-.56s-.5-.93-.5-1.69c0-.36.05-.67.15-.94.1-.26.24-.49.43-.69.17-.18.38-.32.63-.43s.51-.15.77-.15c.24,0,.45.03.65.08s.37.13.53.23l.05-.19h1.37v3.89h0ZM90.11,28.45v-1.99c-.08-.03-.18-.06-.3-.08-.12-.02-.22-.03-.32-.03-.37,0-.65.11-.83.32-.18.21-.28.51-.28.89,0,.42.08.72.24.88s.39.25.7.25c.14,0,.28-.02.41-.07.13-.05.26-.1.37-.18Z"/>
    <path class="cls-12" d="M96.99,29.84h-1.41v-6.08h1.41v6.08Z"/>
    <path class="cls-12" d="M99.77,24.83h-1.49v-1.07h1.49v1.07ZM99.73,29.84h-1.41v-4.39h1.41v4.39Z"/>
    <path class="cls-12" d="M105.32,29.84h-1.41v-.46c-.24.2-.47.34-.68.44-.21.09-.45.14-.73.14-.53,0-.96-.21-1.28-.62s-.48-.97-.48-1.66c0-.37.05-.7.16-.99.11-.29.25-.53.44-.74.18-.19.39-.35.64-.46s.5-.16.76-.16.48.03.65.08c.17.06.34.13.52.21v-1.87h1.41s0,6.08,0,6.08ZM103.91,28.63v-2.16c-.1-.04-.2-.07-.31-.09-.11-.02-.21-.03-.3-.03-.37,0-.65.12-.83.35-.18.23-.28.55-.28.96,0,.43.07.74.22.94s.39.29.71.29c.13,0,.26-.02.4-.07.14-.05.27-.11.38-.19Z"/>
    <path class="cls-12" d="M109.45,29.8c-.15.04-.31.07-.48.09s-.38.03-.62.03c-.55,0-.95-.11-1.22-.33s-.4-.6-.4-1.14v-2.05h-.58v-.95h.58v-1.25h1.41v1.25h1.31v.95h-1.31v1.56c0,.15,0,.29,0,.4s.02.22.06.31c.04.09.1.16.19.22.09.05.23.08.4.08.07,0,.17-.02.29-.05s.2-.06.25-.09h.12v.96h0Z"/>
    <path class="cls-12" d="M115.83,29.8c-.15.04-.31.07-.48.09s-.38.03-.62.03c-.55,0-.95-.11-1.22-.33s-.4-.6-.4-1.14v-2.05h-.58v-.95h.58v-1.25h1.41v1.25h1.31v.95h-1.31v1.56c0,.15,0,.29,0,.4s.02.22.06.31c.04.09.1.16.19.22.09.05.23.08.4.08.07,0,.17-.02.29-.05s.2-.06.25-.09h.12v.96h0Z"/>
    <path class="cls-12" d="M118.12,24.83h-1.49v-1.07h1.49v1.07ZM118.08,29.84h-1.41v-4.39h1.41v4.39Z"/>
    <path class="cls-12" d="M120.81,29.84h-1.41v-6.08h1.41v6.08Z"/>
  </g>
  <g>
    <path class="cls-8" d="M26.65,11.87c-.34.16-.68.32-1,.52-1.49.92-2.59,2.18-3.32,3.76-.03.06-.03.1,0,.16.09.23.03.47.03.7,0,.03,0,.07,0,.1-.01.11,0,.18.12.24.18.08.22.28.25.46.05.24.02.47-.14.67-.05.06-.1.12-.18.13-.1,0-.1.07-.1.14,0,.08,0,.16,0,.24,0,.11-.05.19-.14.25-.22.16-.48.23-.74.3-.59.16-1.2.25-1.81.33-.77.1-1.54.16-2.31.22-.23.02-.46.02-.68.03-.09,0-.13.02-.13.13.02.9.04,1.79.06,2.69.01.76.03,1.52.05,2.28.02.8.03,1.61.05,2.41.01.38.01.75.02,1.12,0,.09-.05.22.12.22.02,0,.03.05.05.07.1.23.09.46-.01.68,0,.01-.01.04-.02.04-.2.09-.05.27-.1.4,0,.02,0,.04.03.04.12-.02.13.08.16.15.07.18.07.36-.03.54-.02.03-.05.08-.08.08-.12,0-.1.09-.1.16v.65s-.01.08.06.1c.21.05.3.16.28.31-.02.15-.16.29-.34.27-.29-.03-.53.08-.77.21-.61.31-1.23.61-1.85.91-.06.03-.08.06-.08.13-.02.18.03.31.15.46.31.35.33.87.06,1.26-.51.78-1.8.77-2.3-.01-.28-.43-.23-.98.13-1.35.06-.07.12-.35.07-.43-.01-.02-.04-.04-.07-.05-.74-.37-1.49-.73-2.23-1.1-.03-.01-.07-.02-.11-.02h-.37c-.19,0-.32-.1-.33-.25-.02-.18.07-.32.26-.34.13-.01.14-.07.14-.17-.01-.21,0-.42,0-.62,0-.06,0-.09-.08-.12-.1-.03-.14-.14-.16-.25-.03-.16-.02-.31.07-.46.02-.03.02-.06.06-.07.03,0,.09.01.09-.06,0-.12,0-.23,0-.35-.17-.04-.15-.19-.18-.31-.04-.16,0-.31.07-.46,0-.02.03-.06.05-.06.13,0,.11-.1.11-.18.05-.84.09-1.67.14-2.51.03-.59.06-1.18.1-1.78.03-.6.06-1.19.1-1.79.03-.59.07-1.18.1-1.78.01-.23.02-.46.04-.68.02-.11-.02-.15-.14-.16-.63-.04-1.26-.08-1.88-.14-.95-.1-1.89-.2-2.81-.47-.18-.06-.37-.12-.53-.23-.12-.08-.21-.17-.16-.34.01-.04,0-.09,0-.13,0-.09,0-.15-.11-.19-.18-.07-.26-.24-.29-.42-.03-.22,0-.44.1-.65.05-.1.13-.18.24-.2.07-.01.07-.04.07-.1,0-.23,0-.47,0-.7,0-.07,0-.14.05-.19.1-.11.06-.21,0-.31-.48-.92-1.1-1.75-1.85-2.47-.72-.69-1.54-1.25-2.46-1.66-.06-.02-.11-.05-.1-.12,0-.07.06-.1.11-.13.22-.09.45-.09.67-.1.66-.02,1.32,0,1.98.08.48.05.97.11,1.43.29.14.05.26.11.37.22.04.04.07.02.11,0,.49-.3,1-.31,1.51-.06.29.15.42.39.38.67-.02.17-.12.31-.24.42-.14.13-.27.26-.42.37-.27.21-.22.57-.06.76.2.25.48.36.78.42.43.08.85.03,1.23-.19.14-.08.25-.17.34-.3.16-.24.14-.5-.05-.72-.1-.11-.22-.19-.36-.25-.19-.08-.39-.17-.58-.25-.12-.05-.23-.12-.32-.21-.33-.3-.31-.75.02-1.04.22-.18.47-.27.76-.3.04,0,.1.02.08-.07-.09-.34.06-.62.24-.89.31-.45.72-.8,1.15-1.12.05-.03.09-.03.14-.02.35.09.7.21,1.05.35,0-.05,0-.1,0-.14,0-.55,0-1.1,0-1.66.02-1.03.01-2.06.02-3.09,0-.24,0-.49.01-.73,0-.06-.01-.09-.07-.11-.18-.07-.22-.18-.13-.35.02-.03.03-.06,0-.1-.09-.2-.01-.36.2-.4.07-.01.05-.06.05-.1.02-.4-.06-.79-.17-1.17-.09-.33-.22-.64-.37-.94-.02-.04-.02-.07-.08-.08-.15-.03-.24-.18-.22-.33.02-.14.14-.25.29-.25.02,0,.04,0,.06,0,.19.03.34-.02.44-.2.03-.06.09-.08.16-.08,1.71,0,3.41,0,5.12,0,.11,0,.17.07.21.14.08.12.17.16.31.14.13,0,.26-.03.36.1.14.17.06.42-.15.47-.04,0-.06.02-.07.05-.33.67-.57,1.36-.56,2.12,0,.09.02.12.12.12.15,0,.24.22.17.36-.03.06-.04.1,0,.16.08.14.02.27-.13.33-.06.02-.08.05-.07.1.02.75.05,1.49.07,2.24.01.51.02,1.01.04,1.52.02.68.05,1.37.07,2.07.25-.11.49-.22.74-.3.24-.08.48-.16.73-.23.06-.01.11-.01.15.02.47.37.92.77,1.19,1.32.11.22.17.45.09.7-.02.07.02.06.06.06.31.04.6.13.82.35.32.32.29.76-.06,1.04-.2.16-.44.23-.66.33-.16.07-.32.13-.46.24-.31.24-.35.6-.08.9.21.23.48.34.77.4.42.08.83.05,1.22-.16.25-.14.43-.33.43-.64,0-.14-.05-.25-.16-.35-.15-.13-.3-.26-.45-.4-.39-.35-.34-.84.12-1.09.5-.27,1.02-.25,1.51.03.04.02.07.07.13.02.34-.26.74-.37,1.15-.45.53-.11,1.06-.14,1.61-.16.43-.01.87,0,1.3.03.17.01.35.04.5.15,0,.04,0,.08,0,.12ZM13.02,28.94h.92c.85,0,1.7,0,2.54,0,.1,0,.13-.02.12-.12-.02-.12-.01-.24-.01-.36,0-.77-.03-1.55-.05-2.33-.02-.79-.03-1.57-.05-2.35-.02-.78-.04-1.56-.05-2.34-.01-.85-.04-1.71-.07-2.56,0-.26-.02-.51-.03-.77,0-.07,0-.13-.11-.13-.56-.01-1.13-.04-1.69-.04-1.46-.02-2.92,0-4.38.07-.09,0-.1.04-.11.12-.02.41-.04.82-.06,1.23-.03.64-.06,1.27-.1,1.91-.03.57-.06,1.13-.09,1.7-.04.68-.08,1.36-.12,2.03-.04.69-.08,1.37-.11,2.05-.03.59-.06,1.17-.1,1.76-.01.11.01.14.12.14,1.14,0,2.28,0,3.43,0ZM4.55,16.14c.16-.13.31-.24.48-.33.63-.35,1.31-.57,2.01-.75,1.02-.26,2.07-.42,3.12-.52.07,0,.09-.03.07-.1-.06-.29-.11-.58-.17-.88-.22-1.01-.44-2.03-.66-3.04-.02-.12-.05-.25-.08-.38-.01-.03,0-.05.02-.06.03,0,.03.03.04.05,0,.02,0,.04.01.06.09.43.19.86.28,1.28.21.97.43,1.93.6,2.9.02.13.07.15.18.14.35-.04.7-.06,1.05-.08,1.03-.06,2.06-.08,3.08-.03.56.02,1.11.05,1.66.11.09,0,.14-.02.14-.11,0-.06.02-.12.03-.18.26-1.33.55-2.65.84-3.97,0-.03,0-.09.05-.08.05,0,.03.06.02.09-.11.5-.22,1-.33,1.5-.19.89-.38,1.77-.55,2.66-.01.09.01.11.09.11.18.01.36.03.54.06.8.1,1.61.22,2.4.42.97.24,1.92.51,2.73,1.15,0,0,.01,0,.02-.01.01-.02.02-.05.04-.07.66-1.42,1.63-2.58,2.91-3.48.41-.29.84-.53,1.3-.73.03-.01.07-.02.07-.06,0-.04-.05-.06-.08-.07-.1-.04-.2-.06-.3-.06-.47-.04-.94-.06-1.42-.04-.51.02-1.03.05-1.53.16-.41.09-.82.19-1.15.48-.04.04-.07.01-.11-.01-.47-.32-.97-.34-1.47-.09-.44.22-.49.65-.12.98.14.13.29.26.43.39.16.14.21.32.18.53-.04.26-.21.44-.42.57-.33.19-.69.25-1.07.22-.36-.03-.71-.14-.99-.39-.36-.33-.34-.78.05-1.08.11-.08.23-.14.36-.19.25-.12.53-.19.76-.37.31-.25.33-.63.05-.91-.22-.22-.49-.31-.78-.34-.14-.01-.16-.04-.12-.17.03-.12.04-.23.02-.35-.03-.17-.11-.32-.2-.47-.28-.44-.65-.78-1.05-1.09-.03-.03-.07-.04-.12-.03-.65.18-1.28.38-1.84.75-.25.16-.47.34-.54.65-.02.08-.07.06-.12.05-.16-.06-.32-.08-.48-.06-.32.02-.61.1-.85.33-.21.22-.22.47-.03.7.07.09.16.14.25.2.25.17.53.29.74.5.23.24.24.54.04.8-.12.15-.27.24-.45.29-.47.14-.95.13-1.43.03-.27-.06-.53-.15-.74-.35-.22-.22-.24-.51-.04-.75.08-.1.19-.18.3-.25.18-.11.37-.23.55-.35.42-.27.42-.72,0-.99-.08-.05-.17-.1-.27-.13-.35-.11-.69-.11-1.02.02-.06-.32-.2-.5-.52-.73-.42-.29-.89-.48-1.37-.63-.45-.15-.46-.14-.82.16-.36.3-.69.62-.92,1.04-.11.2-.19.42-.1.64.05.13,0,.14-.1.14-.27.02-.53.1-.74.28-.35.28-.35.7,0,.98.1.08.23.14.35.19.23.1.47.17.68.31.49.31.51.85.05,1.2-.36.27-.78.35-1.22.33-.35-.03-.66-.12-.93-.35-.28-.23-.41-.73-.02-1.02.14-.11.28-.24.41-.36.3-.29.28-.66-.05-.9-.41-.31-1.15-.3-1.56.02-.04.03-.08.09-.13.01-.11-.13-.26-.2-.42-.26-.3-.11-.61-.17-.93-.22-.84-.12-1.68-.15-2.53-.12-.17,0-.33.02-.49.07-.04.01-.09.03-.09.07,0,.06.05.05.09.07,1.43.65,2.59,1.63,3.52,2.89.33.44.62.9.86,1.41ZM13.09,4.01c-.84,0-1.69,0-2.53,0-.12,0-.14.04-.14.15,0,.91,0,1.83-.01,2.74,0,.92-.01,1.84-.02,2.75,0,.09.03.13.11.17.15.07.3.15.44.23.27.17.53.35.63.67.03.1.07.09.14.08.42-.1.81-.05,1.17.18.45.3.44.8,0,1.1-.17.12-.35.22-.52.33-.12.07-.23.16-.31.26-.17.21-.16.44.02.64.15.16.35.25.55.31.44.14.89.13,1.33.07.19-.03.38-.09.54-.22.29-.23.31-.56.05-.83-.07-.07-.15-.13-.24-.18-.18-.12-.37-.23-.55-.34-.45-.3-.44-.81,0-1.1.37-.24.77-.26,1.19-.17.07.01.1.02.12-.06.03-.11.09-.2.16-.29.17-.2.38-.34.6-.46.08-.04.1-.09.1-.17-.03-.85-.05-1.69-.08-2.54-.03-1.07-.07-2.14-.09-3.2,0-.11-.07-.09-.13-.09-.84,0-1.69,0-2.53,0ZM4.44,18.88c.22-.18.47-.26.72-.33.95-.27,1.94-.37,2.93-.47.62-.06,1.24-.1,1.86-.13.9-.05,1.81-.07,2.71-.09.57-.01,1.14,0,1.71,0,.64.02,1.28.02,1.93.05,1.14.05,2.27.11,3.4.26.87.11,1.75.19,2.54.62,0-.1.01-.21,0-.31-.07-.34-.07-.69.02-1.02.04-.16,0-.27-.08-.4-.06-.09-.12-.17-.2-.24-.33-.31-.72-.5-1.13-.67-1.23-.5-2.53-.73-3.83-.9-.61-.08-1.23-.13-1.84-.16-.76-.04-1.53-.06-2.29-.04-.84.01-1.68.05-2.52.14-.93.09-1.85.23-2.77.44-.72.17-1.43.37-2.09.71-.33.16-.63.35-.86.64-.14.18-.22.37-.17.61.05.25.05.51.01.77-.03.16-.08.32-.03.52ZM16.26.85h-6.2c-.1,0-.14.02-.08.12.09.17.16.36.23.54.18.49.3,1,.29,1.52,0,.1.01.12.11.12.46,0,.91,0,1.37,0h3.6c.07,0,.13,0,.12-.1-.02-.33.03-.64.1-.96.1-.42.26-.82.46-1.23ZM22.27,17.06c.01-.22.04-.44.01-.66-.01-.08-.06-.14-.12-.2-.2-.18-.42-.31-.65-.43-.93-.46-1.93-.69-2.94-.89-.75-.14-1.5-.24-2.25-.31-.76-.07-1.51-.11-2.27-.13-.52-.01-1.05,0-1.57,0-.65.02-1.29.05-1.94.11-.74.07-1.48.16-2.21.29-.84.16-1.67.34-2.47.65-.44.17-.88.37-1.24.69-.07.07-.15.14-.16.23-.02.23,0,.45,0,.69.25-.42.63-.65,1.03-.86.48-.24,1-.42,1.52-.56,1-.27,2.02-.44,3.05-.55.8-.09,1.6-.14,2.39-.17.68-.02,1.35-.02,2.03,0,.53.02,1.06.04,1.59.09.79.07,1.58.17,2.36.32.87.17,1.73.37,2.54.72.49.22.97.46,1.3.93ZM16.92,18c-.13,0-.27,0-.4,0-.09,0-.12.01-.12.11.02.58.04,1.15.06,1.73,0,.2.01.2.22.19.09,0,.18,0,.27,0,.83-.06,1.65-.11,2.48-.22.64-.08,1.27-.17,1.89-.33.28-.07.56-.14.79-.32.14-.1.13-.19,0-.3-.13-.11-.29-.17-.46-.22-1-.31-2.03-.4-3.07-.5-.56-.05-1.11-.09-1.67-.13ZM9.96,18.27h.01c0-.05,0-.11,0-.16,0-.08-.03-.1-.1-.09-.39.03-.78.06-1.18.08-.9.07-1.81.16-2.7.33-.53.1-1.07.18-1.52.51-.09.07-.05.1-.01.15.07.09.18.15.29.19.65.26,1.34.36,2.03.46.47.07.94.11,1.42.16.52.05,1.05.08,1.57.12.1,0,.13-.03.13-.12.02-.54.04-1.08.07-1.63ZM13.02,31.85c1.15,0,2.3,0,3.45,0,.08,0,.14,0,.13-.12-.01-.21-.01-.42,0-.62,0-.12-.03-.15-.15-.15-2.29,0-4.58,0-6.86,0-.02,0-.05,0-.07,0-.06,0-.08.02-.08.08,0,.24,0,.48,0,.72,0,.07.03.09.1.09.2,0,.4,0,.6,0,.96,0,1.92,0,2.89,0ZM13.02,29.69h3.48c.27,0,.32-.05.32-.33,0-.06-.01-.13-.02-.19-.02-.11-.07-.17-.2-.17-2.38,0-4.76,0-7.14,0-.03,0-.05,0-.08,0-.06,0-.09.02-.11.07-.06.16-.06.31-.02.47.03.09.07.13.18.13,1.2,0,2.39,0,3.59,0ZM13.04,30.25h-3.52c-.28,0-.37.1-.33.39,0,.01,0,.03.01.05.03.16.08.2.24.2h7.16c.16,0,.21-.05.24-.2.02-.09.01-.18-.01-.27-.03-.1-.06-.19-.2-.16-.08.02-.16,0-.23,0h-3.37ZM16.09,32.48s0-.01,0-.02h-6.14s.05.03.06.04c.69.34,1.37.67,2.05,1.01.06.03.12.04.19.04.52,0,1.04,0,1.56,0,.07,0,.14-.02.2-.05.49-.24.98-.48,1.46-.72.21-.11.41-.21.62-.31ZM13.03,35.93c.34,0,.64-.11.88-.32.47-.41.5-1.05.07-1.5-.05-.05-.1-.08-.18-.07-.53,0-1.06,0-1.58,0-.06,0-.1.01-.14.06-.27.28-.38.6-.27.98.14.51.63.86,1.22.86ZM12.95,32.38h3.64c.08,0,.16-.01.23-.05.08-.04.12-.1.12-.18,0-.09-.05-.16-.14-.19-.09-.04-.19-.04-.28-.04-2.35,0-4.7-.01-7.05,0-.08,0-.16,0-.23.02-.1.03-.19.07-.19.19,0,.17.08.24.27.25,1.21,0,2.42,0,3.64,0ZM13.03,30.19h3.34c.26,0,.25,0,.26-.26,0-.12-.02-.16-.15-.16-2.26,0-4.51,0-6.77,0-.28,0-.28,0-.28.29,0,.12.03.13.14.13h3.47ZM13.09.78h3.23c.11,0,.23-.11.23-.21,0-.1-.11-.2-.23-.2-2.15,0-4.31,0-6.45,0-.05,0-.09,0-.13.03-.06.06-.13.13-.09.23.04.1.1.16.22.16,1.07,0,2.15,0,3.22,0ZM13.1,3.62h-2.74c-.1,0-.19.06-.18.15,0,.1.08.15.18.16.07.01.15,0,.22,0,1.73,0,3.47,0,5.2,0,.12,0,.22-.07.22-.16,0-.1-.08-.16-.21-.16h-2.69ZM13.08,3.54c.91,0,1.82,0,2.73,0,.11,0,.18-.03.19-.14,0-.1-.08-.18-.19-.18h-5.42c-.12,0-.19.07-.19.18,0,.13.07.14.18.14.9,0,1.8,0,2.7,0ZM10.31.27h5.56c-.09-.12-.17-.2-.33-.2-1.63.01-3.27.01-4.9,0-.16,0-.26.06-.34.2ZM13.03,33.63h-.65c-.26,0-.26,0-.23.26,0,.06.02.08.08.08h1.58c.05,0,.08-.01.08-.07,0-.05,0-.11.01-.16.01-.08-.01-.12-.1-.11-.26,0-.52,0-.77,0ZM4,18.01c0,.19.07.36.22.49.1.08.14.06.16-.07.05-.32.04-.64-.02-.96-.03-.11-.08-.1-.14-.05-.07.04-.1.1-.13.17-.06.13-.08.27-.09.42ZM22.25,18.02c.01.11,0,.24.04.37.01.05,0,.12.06.14.06.02.1-.03.15-.07.3-.27.18-.83,0-1.01-.02-.01-.03-.03-.05-.04-.07-.04-.1-.05-.12.05-.04.18-.05.36-.06.56Z"/>
    <path class="cls-3" d="M13.02,28.94c-1.14,0-2.28,0-3.43,0-.11,0-.14-.03-.12-.14.04-.59.07-1.17.1-1.76.04-.69.08-1.37.11-2.05.04-.68.08-1.36.12-2.03.03-.57.06-1.14.09-1.7.03-.64.07-1.27.1-1.91.02-.41.04-.82.06-1.23,0-.08.02-.11.11-.12,1.46-.07,2.92-.08,4.38-.07.56,0,1.13.03,1.69.04.11,0,.1.07.11.13,0,.26.02.51.03.77.03.85.05,1.71.07,2.56.01.78.03,1.56.05,2.34.02.78.03,1.57.05,2.35.02.77.04,1.55.05,2.33,0,.12,0,.24.01.36.02.11-.02.13-.12.12-.84,0-1.69,0-2.54,0-.31,0-.61,0-.92,0ZM12.45,20.78c.11.06.19.14.19.27,0,.12.06.13.15.12.05,0,.12.03.16-.04.07-.13-.01-.38-.15-.44-.07-.03-.11-.08-.15-.14-.04-.05-.06-.1-.02-.16.04-.05.1-.03.15-.02.11.04.21.08.31.12h.02c0,.08.04.15-.04.22-.04.04-.04.1-.01.17.03.05.07.1.07.16,0,.16.1.14.19.13.05,0,.13.03.15-.03.04-.17.2-.34.03-.52.03-.04,0-.11.06-.14.1-.04.2-.08.3-.12.04-.02.09-.02.13.02.04.04.03.09.01.13-.03.06-.07.12-.13.16-.19.11-.23.21-.21.42,0,.06.03.08.09.08.04,0,.08,0,.13,0,.07,0,.09-.01.1-.09,0-.08.02-.17.08-.21.14-.1.15-.28.28-.37.01,0,.01-.02.02-.03.03-.02,0-.09.06-.07.06.02.09.06.09.12,0,.09-.07.16-.13.22-.03,0-.05,0-.07.01-.15.05-.19.18-.2.33-.01.03-.02.06,0,.09.12.02.23.05.29-.11.02-.06.08-.1.13-.15.07-.07.16-.13.22-.2.18-.21.1-.47-.17-.54-.08-.02-.16-.02-.24,0h-.05c-.06-.07-.13-.12-.23-.11-.03-.02-.07-.02-.1,0-.15,0-.25.15-.42.18.16-.22.04-.34-.14-.45.06-.04.1,0,.15-.02.07-.01.1-.05.1-.12,0-.06-.03-.12-.09-.11-.08,0-.1-.03-.11-.09-.02-.07-.08-.08-.14-.08-.05,0-.11.02-.12.08,0,.08-.03.09-.1.09-.07,0-.1.05-.1.12,0,.07.05.1.11.12.04.01.08-.03.12.02-.17.1-.27.22-.16.42,0,.02-.02.02-.04.02-.06-.03-.12-.07-.18-.1-.19-.11-.33-.1-.49.03-.02.01-.02.05-.06.02-.06-.05-.13-.03-.2-.02-.14.01-.24.08-.3.21-.06.13,0,.24.07.33.06.07.12.12.19.18.07.06.15.12.19.21.04.08.16.13.24.09.07-.04.03-.12.02-.18-.02-.06-.05-.12-.08-.18.01,0,.02-.01.03-.02ZM11.81,26.06c-.18-.03-.31-.08-.45-.14-.05-.02-.09-.03-.13.03-.04.06,0,.09.05.12.03.02.06.04.09.06.2.1.41.19.63.23.16.03.31.07.46.13.91.37,1.74.25,2.49-.39.29-.25.48-.58.54-.97.01-.08.02-.17-.09-.18-.1-.01-.15.05-.16.15-.01.1-.04.19-.08.28-.28.65-.96.98-1.58.99-.14,0-.28,0-.42-.08.07-.03.12-.05.16-.07.84-.36,1.03-1.07.87-1.72-.05-.2-.18-.32-.37-.38-.1-.03-.21-.03-.31-.03-.17,0-.34.03-.55.06.16-.19.31-.36.44-.53.07-.09.13-.12.24-.08.41.11.64.03.83-.28.13.12.23.27.32.42.02.04.04.07.1.05.05-.02.08-.04.07-.1,0-.02-.01-.05-.01-.07,0-.25.06-.48.28-.63.02-.02.12,0,.06-.08-.03-.05-.05-.11-.14-.06-.09.06-.2.05-.3.04-.2-.02-.38-.08-.56-.17-.57-.26-1.17-.3-1.76-.15-1.06.26-1.65,1.29-1.4,2.38.11.44.31.82.66,1.17ZM13.29,21.7c.32,0,.64,0,.96,0,.07,0,.1-.01.1-.09,0-.09,0-.17,0-.26,0-.09-.02-.11-.11-.11-.54,0-1.09,0-1.63,0-.11,0-.27-.05-.33.02-.07.08-.01.22-.02.34,0,.09.03.11.1.1.31,0,.62,0,.93,0Z"/>
    <path class="cls-1" d="M4.55,16.14c-.24-.51-.53-.97-.85-1.42-.93-1.25-2.09-2.24-3.52-2.89-.04-.02-.1-.01-.09-.07,0-.04.05-.06.09-.07.16-.05.33-.07.49-.07.85-.02,1.7,0,2.53.12.32.04.63.11.93.22.16.06.31.12.42.26.05.07.09.02.13-.01.41-.31,1.14-.32,1.56-.02.33.24.35.61.05.9-.13.12-.27.25-.41.36-.39.29-.26.79.02,1.02.27.23.58.32.93.35.44.02.86-.05,1.22-.33.46-.35.44-.89-.05-1.2-.21-.13-.45-.21-.68-.31-.12-.05-.24-.11-.35-.19-.35-.28-.35-.69,0-.98.21-.18.47-.26.74-.28.1,0,.15-.01.1-.14-.09-.23,0-.44.1-.64.22-.42.56-.74.92-1.04.37-.3.37-.31.82-.16.48.16.95.34,1.37.63.33.22.46.41.52.73.34-.13.68-.13,1.02-.02.09.03.18.08.27.13.42.27.41.72,0,.99-.18.12-.37.23-.55.35-.11.07-.22.15-.3.25-.19.24-.18.53.04.75.21.2.47.3.74.35.48.1.95.11,1.43-.03.18-.05.33-.15.45-.29.21-.26.19-.56-.04-.8-.21-.22-.49-.34-.74-.5-.09-.06-.18-.12-.25-.2-.19-.24-.18-.49.03-.7.23-.24.53-.31.85-.33.16-.01.32,0,.48.06.05.02.11.03.12-.05.07-.31.29-.49.54-.65.56-.37,1.2-.58,1.84-.75.05-.01.08,0,.12.03.4.32.77.66,1.05,1.09.09.14.16.3.2.47.03.12.02.24-.02.35-.04.13-.02.16.12.17.3.03.57.12.78.34.28.28.26.66-.05.91-.22.18-.5.25-.76.37-.13.06-.25.11-.36.19-.39.3-.41.75-.05,1.08.28.26.62.36.99.39.37.03.74-.03,1.07-.22.22-.13.38-.3.42-.57.04-.21-.02-.39-.18-.53-.15-.13-.29-.26-.43-.39-.36-.33-.32-.76.12-.98.5-.25,1-.23,1.47.09.04.03.07.05.11.01.33-.29.73-.39,1.15-.48.5-.11,1.02-.14,1.53-.16.47-.02.94,0,1.42.04.1,0,.2.02.3.06.03.01.08.03.08.07,0,.04-.05.04-.07.06-.46.2-.9.44-1.3.73-1.28.9-2.25,2.06-2.91,3.48-.01.02-.02.05-.04.07,0,0-.01.01-.02.01-.8-.64-1.76-.91-2.73-1.15-.79-.2-1.59-.32-2.4-.42-.18-.02-.36-.04-.54-.06-.08,0-.11-.02-.09-.11.16-.89.36-1.78.55-2.66.1-.5.22-1,.33-1.5,0-.03.03-.08-.02-.09-.05-.01-.04.04-.05.08-.29,1.32-.58,2.64-.84,3.97-.01.06-.03.12-.03.18,0,.1-.05.12-.14.11-.55-.06-1.11-.09-1.66-.11-1.03-.04-2.06-.03-3.08.03-.35.02-.7.04-1.05.08-.11.01-.15,0-.18-.14-.18-.97-.39-1.94-.6-2.9-.1-.43-.19-.85-.28-1.28,0-.02,0-.04-.01-.06-.01-.02,0-.05-.04-.05-.03,0-.03.03-.02.06.02.13.05.25.08.38.22,1.01.44,2.03.66,3.04.06.29.11.58.17.88.02.07,0,.09-.07.1-1.05.1-2.09.26-3.12.52-.7.18-1.38.39-2.01.75-.17.1-.32.2-.48.33ZM4.6,13.2c-.14-.24-.29-.43-.49-.58-.77-.57-1.65-.68-2.57-.69-.1,0-.1.07-.09.14.02.06.07.1.12.12.09.04.18.08.26.12.6.28,1.09.71,1.53,1.19.54.59.98,1.25,1.36,1.95.05.1.08.14.21.06.33-.2.68-.38,1.06-.48.03,0,.08,0,.08-.04,0-.04-.04-.05-.07-.07-.21-.15-.41-.3-.57-.51-.1-.13-.17-.27-.17-.43,0-.25.12-.42.29-.58.15-.15.32-.27.45-.45.09-.13.09-.26-.01-.37-.3-.32-.92-.37-1.22.09-.1.15-.14.32-.17.52ZM22.15,13.21c-.02-.09-.03-.16-.04-.22-.14-.58-.73-.82-1.22-.5-.25.16-.28.34-.08.55.14.15.29.28.44.42.33.33.34.63.03.99-.15.17-.32.31-.5.45-.03.02-.07.03-.06.07.01.04.05.04.08.05.37.1.71.27,1.04.45.1.06.14.04.2-.06.39-.72.83-1.41,1.39-2.01.49-.53,1.03-.98,1.72-1.21.03-.01.06-.02.09-.05.05-.03.11-.07.1-.14-.02-.08-.09-.08-.16-.08-.38,0-.76.03-1.14.1-.52.1-1.01.27-1.43.61-.19.15-.34.34-.47.56ZM15.66,12.71c0-.1,0-.21,0-.31-.02-.34-.11-.65-.29-.95-.27-.45-.94-.48-1.29-.22-.29.21-.29.5,0,.69.04.03.09.11.13.05.04-.06-.06-.08-.1-.11-.23-.17-.24-.38-.02-.56.31-.25.93-.24,1.2.17.22.34.29.71.29,1.1,0,.47-.06.93-.14,1.39-.02.12-.08.14-.18.13-.53-.05-1.06-.06-1.59-.07-.79-.01-1.59,0-2.38.07-.06,0-.11.01-.13-.07-.1-.53-.18-1.06-.15-1.6.02-.32.09-.63.27-.91.16-.26.4-.38.7-.38.23,0,.44.06.6.24.14.17.13.31-.04.45-.04.03-.09.07-.13.1-.02.01-.03.03-.01.05.01.01.02.02.04.02.15-.03.32-.28.3-.43-.03-.19-.14-.31-.3-.39-.37-.2-.96-.15-1.23.31-.2.34-.27.7-.28,1.08-.01.52.07,1.03.17,1.54.02.08.04.09.11.08.38-.05.76-.06,1.14-.07,1.01-.02,2.02-.02,3.02.07.06,0,.09,0,.11-.07.09-.47.18-.93.16-1.4ZM7.8,11.75c-.24,0-.45.07-.62.21-.16.14-.24.35-.17.53.08.22.27.32.47.39.02,0,.04.01.05-.01.02-.03,0-.04-.03-.06-.07-.03-.14-.06-.21-.1-.31-.2-.31-.53,0-.74.28-.18.58-.21.89-.07.25.12.41.33.55.56.31.53.43,1.11.48,1.72,0,.08-.03.09-.09.09-.18.01-.35.04-.52.08-.03,0-.06.01-.05.05,0,.03.04.03.06.02.2-.06.41-.07.61-.09.05,0,.07-.01.07-.08-.02-.3-.06-.58-.14-.87-.12-.49-.3-.95-.65-1.33-.19-.2-.42-.31-.7-.31ZM19.65,12.4c0-.15-.06-.28-.17-.38-.34-.32-.95-.31-1.29.02-.2.2-.36.43-.48.69-.21.48-.32.98-.36,1.5,0,.09.02.13.12.13.15,0,.3.03.46.05.03,0,.07.04.08-.02,0-.06-.04-.05-.07-.05-.14-.02-.28-.05-.42-.06-.08,0-.1-.03-.09-.1.02-.22.05-.44.1-.65.13-.54.31-1.06.73-1.45.31-.29.88-.29,1.18,0,.2.2.18.45-.05.61-.03.03-.07.04-.11.07-.02.01-.03.03-.02.05.01.02.03.02.05.02.17-.04.34-.26.34-.43ZM8.25,11.15s.02.08.03.14c0,.02.02.05.05.04.03-.01.03-.03.02-.06-.07-.22.03-.41.14-.58.19-.29.44-.53.71-.75.03-.02.06-.04.1-.03.48.15.95.3,1.35.6.1.08.2.17.25.31,0,.02,0,.09.06.07.05-.02.02-.07,0-.1-.05-.15-.15-.26-.27-.35-.42-.31-.91-.47-1.4-.61-.05-.01-.09,0-.12.04-.25.2-.48.42-.68.67-.13.17-.24.36-.24.61ZM18.33,11.16c0-.17-.05-.3-.12-.43-.2-.35-.5-.62-.82-.88-.04-.03-.08-.02-.13-.01-.27.07-.54.17-.8.28-.23.1-.45.21-.64.38-.1.09-.19.19-.23.33,0,.03,0,.05.02.06.04.02.04-.02.04-.04.05-.15.16-.26.28-.35.4-.3.86-.44,1.33-.58.05-.01.08.02.11.04.22.17.42.36.59.59.17.22.33.44.24.75,0,.02,0,.04.03.05.02,0,.04,0,.04-.03.02-.06.04-.11.03-.14Z"/>
    <path class="cls-3" d="M13.09,4.01c.85,0,1.69,0,2.53,0,.06,0,.13-.02.13.09.03,1.07.06,2.14.09,3.2.03.85.05,1.69.08,2.54,0,.08-.02.13-.1.17-.23.12-.43.26-.6.46-.07.08-.14.18-.16.29-.02.08-.05.08-.12.06-.42-.09-.82-.06-1.19.17-.45.29-.45.8,0,1.1.18.12.37.23.55.34.08.05.16.11.24.18.26.27.24.6-.05.83-.16.13-.34.19-.54.22-.45.06-.89.07-1.33-.07-.2-.06-.39-.15-.55-.31-.19-.19-.2-.42-.02-.64.09-.1.2-.19.31-.26.18-.11.35-.22.52-.33.45-.29.45-.8,0-1.1-.36-.23-.76-.28-1.17-.18-.08.02-.11.02-.14-.08-.1-.32-.36-.51-.63-.67-.14-.09-.29-.16-.44-.23-.08-.04-.11-.08-.11-.17,0-.92,0-1.83.02-2.75,0-.91,0-1.82.01-2.74,0-.11.03-.15.14-.15.84,0,1.69,0,2.53,0Z"/>
    <path class="cls-1" d="M4.44,18.88c-.05-.19,0-.35.03-.51.04-.25.04-.51-.01-.77-.05-.24.03-.43.17-.61.23-.29.53-.48.86-.64.66-.33,1.37-.54,2.09-.71.91-.21,1.84-.35,2.77-.44.84-.08,1.68-.12,2.52-.14.77-.01,1.53,0,2.29.04.62.03,1.23.08,1.84.16,1.31.17,2.6.39,3.83.9.41.17.8.36,1.13.67.08.07.14.15.2.24.08.12.12.24.08.4-.08.34-.08.68-.02,1.02.02.1,0,.2,0,.31-.8-.43-1.68-.51-2.54-.62-1.13-.15-2.26-.21-3.4-.26-.64-.03-1.28-.04-1.93-.05-.57-.01-1.14-.02-1.71,0-.9.02-1.81.03-2.71.09-.62.04-1.24.07-1.86.13-.99.1-1.97.2-2.93.47-.26.07-.5.15-.72.33ZM13.37,15.63c-.35,0-.7,0-1.05,0-.19,0-.28.09-.28.28,0,.31,0,.62,0,.93,0,.19.1.29.28.29h2.09c.19,0,.3-.1.3-.29,0-.31,0-.61,0-.92,0-.19-.1-.29-.29-.29-.35,0-.7,0-1.05,0ZM8.08,15.88s-.02.03-.03.04c-.19.24-.39.49-.58.73-.04.05-.01.07.02.1.23.19.45.37.68.56.05.04.08.04.12-.01.18-.23.36-.46.55-.69.04-.05.05-.08,0-.12-.23-.19-.45-.38-.68-.56-.02-.01-.04-.03-.07-.05ZM18.61,15.89s-.02.02-.03.02c-.24.2-.48.39-.72.59-.03.03-.03.05,0,.08.19.24.38.48.56.73.03.04.06.05.1.01.24-.19.47-.38.71-.57.04-.03.04-.05.01-.09-.19-.25-.38-.49-.57-.74-.01-.02-.03-.03-.05-.04ZM20.73,16.35c-.17,0-.29.16-.29.35,0,.19.13.33.3.33.16,0,.28-.16.28-.35,0-.19-.13-.34-.29-.33ZM10.63,15.89c0-.18-.13-.31-.31-.31-.18,0-.3.13-.3.32,0,.17.14.31.31.31.17,0,.31-.14.3-.32ZM20.22,17.63c0,.19.12.33.27.34.16,0,.3-.15.3-.35,0-.19-.13-.34-.29-.34-.16,0-.29.16-.29.35ZM10.63,16.86c0-.18-.13-.31-.31-.31-.18,0-.3.13-.3.32,0,.17.14.31.31.31.17,0,.31-.14.3-.32ZM6.46,16.6c0-.19-.14-.35-.3-.35-.16,0-.28.16-.28.34s.14.36.29.36c.16,0,.29-.17.28-.35ZM5.98,17.56c0,.18.09.33.23.35.14.03.26-.04.31-.19.05-.15.04-.3-.07-.42-.07-.08-.18-.1-.28-.06-.13.06-.18.18-.18.31ZM16.42,16.21c.17,0,.3-.14.31-.31,0-.18-.14-.32-.32-.32-.17,0-.3.15-.3.32,0,.17.15.32.32.31ZM16.42,16.55c-.18,0-.32.13-.32.31,0,.17.14.32.31.32.17,0,.31-.14.31-.32,0-.17-.14-.31-.3-.31Z"/>
    <path class="cls-3" d="M16.26.85c-.2.41-.36.81-.46,1.23-.08.31-.13.63-.1.96,0,.1-.05.1-.12.1h-3.6c-.46,0-.91,0-1.37,0-.1,0-.11-.02-.11-.12.01-.52-.11-1.03-.29-1.52-.07-.18-.14-.36-.23-.54-.05-.1-.02-.12.08-.12h5.2c.33,0,.66,0,1,0Z"/>
    <path class="cls-7" d="M22.27,17.06c-.33-.47-.81-.72-1.31-.93-.81-.35-1.67-.56-2.54-.72-.78-.15-1.57-.25-2.36-.32-.53-.05-1.06-.07-1.59-.09-.68-.02-1.35-.03-2.03,0-.8.02-1.6.08-2.39.17-1.03.11-2.05.28-3.05.55-.52.14-1.03.31-1.52.56-.41.2-.79.44-1.03.86,0-.24-.01-.47,0-.69,0-.09.09-.17.16-.23.36-.32.8-.51,1.24-.69.8-.31,1.63-.49,2.47-.65.73-.13,1.47-.23,2.21-.29.65-.06,1.29-.09,1.94-.11.52-.01,1.05-.02,1.57,0,.76.02,1.52.06,2.27.13.75.07,1.51.17,2.25.31,1.01.19,2.01.43,2.94.89.23.12.46.26.65.43.06.06.11.12.12.2.03.22,0,.43,0,.66Z"/>
    <path class="cls-10" d="M16.92,18c.56.04,1.12.08,1.67.13,1.04.1,2.07.19,3.07.5.17.05.32.11.46.22.14.11.14.19,0,.3-.23.18-.51.25-.79.32-.62.16-1.26.25-1.89.33-.82.1-1.65.16-2.48.22-.09,0-.18,0-.27,0-.21.01-.22.01-.22-.19-.02-.58-.04-1.15-.06-1.73,0-.1.03-.11.12-.11.13.01.26,0,.4,0Z"/>
    <path class="cls-10" d="M9.96,18.27c-.02.54-.05,1.09-.07,1.63,0,.09-.03.13-.13.12-.52-.04-1.05-.07-1.57-.12-.48-.04-.95-.09-1.42-.16-.69-.1-1.38-.2-2.03-.46-.11-.04-.22-.1-.29-.19-.04-.05-.08-.09.01-.15.46-.33,1-.41,1.52-.51.89-.17,1.79-.26,2.7-.33.39-.03.79-.05,1.18-.08.07,0,.11,0,.1.09-.01.05,0,.11,0,.16h-.01Z"/>
    <path class="cls-7" d="M13.02,31.85c-.96,0-1.93,0-2.89,0-.2,0-.4,0-.6,0-.07,0-.1-.02-.1-.09,0-.24,0-.48,0-.72,0-.06.02-.09.08-.08.02,0,.05,0,.07,0,2.29,0,4.57,0,6.86,0,.12,0,.16.02.15.15-.01.21-.01.42,0,.62,0,.11-.05.12-.13.12-1.15,0-2.3,0-3.45,0Z"/>
    <path class="cls-3" d="M13.02,29.69c-1.2,0-2.39,0-3.59,0-.11,0-.15-.04-.18-.13-.04-.16-.04-.31.02-.47.02-.05.05-.08.11-.07.03,0,.05,0,.08,0,2.38,0,4.76,0,7.14,0,.13,0,.18.05.2.17,0,.06.02.12.02.19,0,.27-.06.33-.32.33h-3.48Z"/>
    <path class="cls-7" d="M13.04,30.25h3.37c.08,0,.16.02.23,0,.14-.03.17.06.2.16.02.09.03.18.01.27-.03.15-.09.2-.24.2h-7.16c-.16,0-.21-.04-.24-.2,0-.02,0-.03-.01-.05-.03-.28.06-.39.33-.39h3.52Z"/>
    <path class="cls-3" d="M16.09,32.48c-.21.1-.42.2-.62.31-.49.24-.97.48-1.46.72-.06.03-.13.05-.2.05-.52,0-1.04,0-1.56,0-.07,0-.13-.01-.19-.04-.69-.34-1.37-.67-2.05-1.01-.01,0-.02-.02-.06-.04h6.14s0,.01,0,.02Z"/>
    <path class="cls-1" d="M13.03,35.93c-.59,0-1.08-.35-1.22-.86-.1-.38,0-.7.27-.98.04-.04.09-.06.14-.06.53,0,1.06,0,1.58,0,.07,0,.13.02.18.07.43.45.4,1.09-.07,1.5-.24.21-.54.32-.88.32Z"/>
    <path class="cls-11" d="M12.95,32.38h-3.64c-.19,0-.27-.08-.27-.25,0-.13.1-.17.19-.19.07-.02.15-.02.23-.02,2.35-.02,4.7,0,7.05,0,.09,0,.19,0,.28.04.08.04.14.1.14.19,0,.08-.05.14-.12.18-.07.04-.15.05-.23.05-1.21,0-2.42,0-3.64,0Z"/>
    <path class="cls-9" d="M13.03,30.19h-3.47c-.11,0-.15-.02-.14-.13,0-.29,0-.29.28-.29,2.26,0,4.51,0,6.77,0,.13,0,.16.04.15.16,0,.26,0,.26-.26.26h-3.34Z"/>
    <path class="cls-1" d="M13.09.78c-1.07,0-2.14,0-3.22,0-.12,0-.18-.06-.22-.16-.04-.1.02-.17.09-.23.04-.03.08-.03.13-.03,2.15,0,4.3,0,6.45,0,.11,0,.22.1.23.2,0,.1-.12.21-.23.21-1.08,0-2.15,0-3.23,0Z"/>
    <path class="cls-4" d="M13.1,3.62h2.69c.13,0,.21.06.21.16,0,.08-.1.16-.22.16-1.73,0-3.47,0-5.2,0-.08,0-.15,0-.22,0-.09-.01-.17-.06-.18-.16-.01-.09.08-.15.18-.15h2.74Z"/>
    <path class="cls-3" d="M13.08,3.54c-.9,0-1.8,0-2.7,0-.11,0-.18-.02-.18-.14,0-.11.07-.18.19-.18h5.42c.11,0,.2.08.19.18-.01.11-.08.14-.19.14-.91,0-1.82,0-2.73,0Z"/>
    <path class="cls-3" d="M10.31.27c.08-.14.17-.2.34-.2,1.63,0,3.27,0,4.9,0,.16,0,.24.07.33.2h-5.56Z"/>
    <path class="cls-2" d="M13.03,33.63c.26,0,.52,0,.77,0,.09,0,.12.03.1.11,0,.05-.01.11-.01.16,0,.06-.03.07-.08.07h-1.58c-.06,0-.08-.02-.08-.08-.02-.26-.03-.26.23-.26h.65Z"/>
    <path class="cls-4" d="M4,18.01c0-.15.03-.28.09-.42.03-.07.07-.13.13-.17.07-.05.12-.06.14.05.06.32.07.64.02.96-.02.13-.06.14-.16.07-.16-.12-.22-.3-.22-.49Z"/>
    <path class="cls-4" d="M22.25,18.02c0-.2.03-.38.06-.56.02-.1.06-.09.12-.05.02.01.04.02.05.04.18.19.3.74,0,1.01-.04.04-.09.09-.15.07-.06-.02-.04-.09-.06-.14-.03-.13-.02-.26-.04-.37Z"/>
    <path class="cls-5" d="M11.81,26.06c-.35-.35-.56-.73-.66-1.17-.25-1.09.34-2.12,1.4-2.38.6-.15,1.19-.11,1.76.15.18.08.36.14.56.17.1,0,.21.01.3-.04.09-.06.11,0,.14.06.05.08-.04.06-.06.08-.22.16-.28.38-.28.63,0,.02,0,.05.01.07.01.06-.02.08-.07.1-.06.02-.08-.01-.1-.05-.09-.16-.19-.3-.32-.42-.19.31-.42.39-.83.28-.12-.03-.18-.01-.24.08-.13.18-.28.34-.44.53.21-.03.38-.06.55-.06.1,0,.21,0,.31.03.19.06.32.18.37.38.16.65-.03,1.35-.87,1.72-.05.02-.1.04-.16.07.14.08.28.08.42.08.61,0,1.3-.34,1.58-.99.04-.09.07-.19.08-.28.01-.1.06-.16.16-.15.11.01.1.11.09.19-.07.39-.25.72-.54.97-.75.64-1.59.76-2.49.39-.15-.06-.31-.1-.46-.13-.22-.04-.43-.12-.63-.23-.03-.02-.07-.04-.09-.06-.04-.03-.09-.06-.05-.12.03-.05.08-.05.13-.03.13.06.26.11.45.14ZM14.39,23.15s-.02-.03-.03-.04c-.02-.02-.05-.04-.07-.06-.28-.21-.6-.33-.95-.35-.6-.02-1.13.33-1.35.89-.13.33-.15.66-.1,1,.09.58.34,1.06.8,1.43.05.04.1.05.16.03.43-.13.73-.4.84-.85.07-.29-.03-.5-.3-.63-.25-.12-.51-.13-.78-.13-.04,0-.09.03-.12-.01-.03-.05.02-.08.05-.12.3-.4.6-.8.89-1.2.06-.08.1-.09.19-.05.24.1.49.15.76.09ZM14.9,23.62c-.01-.29.04-.55.29-.75-.3.06-.56.01-.8-.1-.46-.22-.94-.29-1.44-.25-.63.05-1.13.31-1.47.85-.51.79-.35,1.89.33,2.58.18.18.58.25.83.14-.12-.1-.23-.2-.32-.32-.42-.54-.59-1.15-.5-1.82.06-.41.23-.77.58-1.02.61-.46,1.48-.38,2.08.18.16.15.29.32.42.51ZM14.41,23.23c-.28.04-.53.02-.77-.08-.08-.03-.12-.02-.17.05-.27.36-.54.72-.8,1.08-.02.02-.06.05-.04.08.02.04.06.02.09.02.24,0,.48.03.7.13.27.12.42.37.36.64-.09.46-.35.77-.78.94-.47.18-.93.14-1.4,0-.05-.02-.1-.06-.18-.02.66.33,1.31.35,1.97.03.57-.28.84-.73.8-1.36-.02-.32-.15-.51-.4-.57-.12-.02-.24-.03-.36-.02-.14.02-.29.04-.43.06-.03,0-.08.02-.1-.02-.03-.05.02-.08.04-.11.17-.21.34-.41.51-.61.04-.05.08-.07.15-.05.15.05.3.07.45.06.16-.01.28-.08.37-.25ZM12.48,26.41c.5.21.99.27,1.49.13.67-.19,1.19-.56,1.43-1.25.02-.07.05-.14.05-.22,0-.03,0-.05-.03-.06-.03,0-.06.01-.07.04,0,.02-.01.05-.02.07-.18.96-1.36,1.53-2.2,1.22-.05-.02-.1-.03-.16-.01-.15.04-.3.05-.49.08Z"/>
    <path class="cls-8" d="M13.5,20.62c.17.18,0,.35-.03.52-.02.06-.1.03-.15.03-.1,0-.2.02-.19-.13,0-.05-.04-.1-.07-.16-.02-.06-.03-.13.01-.17.08-.07.04-.14.04-.22q.11-.18-.04-.3c-.12-.2,0-.32.16-.42-.05-.05-.09-.01-.12-.02-.06-.01-.11-.05-.11-.12,0-.07.03-.12.1-.12s.1-.02.1-.09c0-.05.06-.08.12-.08.06,0,.12.01.14.08.02.06.03.1.11.09.06,0,.09.05.09.11,0,.07-.03.1-.1.12-.04.01-.09-.02-.15.02.18.1.3.23.14.45.17-.02.27-.18.42-.18.03,0,.07,0,.1,0,.1,0,.17.04.23.11.02.02.03.05.05,0,.08-.02.16-.02.24,0,.26.07.35.33.17.54-.06.07-.15.13-.22.2-.05.05-.11.09-.13.15-.05.17-.17.14-.29.11,0-.03,0-.06,0-.09.01-.14.05-.27.2-.33.02,0,.04,0,.07-.01.06-.06.13-.12.13-.22,0-.06-.03-.1-.09-.12-.06-.02-.04.05-.06.07,0,0,0,.02-.02.03-.14.09-.15.27-.28.37-.06.05-.08.13-.09.21,0,.07-.03.09-.1.09-.04,0-.08,0-.13,0-.06,0-.08-.03-.09-.08-.03-.22.02-.31.21-.42.06-.04.1-.1.13-.16.02-.04.03-.09-.01-.13-.04-.04-.09-.03-.13-.02-.1.04-.2.08-.3.12-.09-.03-.07-.14-.14-.19.04.1.1.2.08.32ZM13.74,20.96v.07s.02.06.06.06c.04,0,.09.03.1-.04.05-.23.19-.41.36-.57.07-.07.07-.15.01-.24-.09-.14-.25-.18-.4-.1-.09.05-.18.1-.27.15-.02.01-.06.02-.05.06.02.05.05.02.08.01.09-.03.17-.08.27-.09.13,0,.21.07.19.19-.02.12-.09.22-.2.26-.11.05-.15.11-.15.23ZM13.33,21.11s.07.02.08-.05c0-.06.04-.11.07-.17.04-.08.05-.14-.06-.18-.05-.02-.07-.03-.03-.08.05-.07.02-.21-.04-.25-.03-.02-.07-.03-.09,0-.05.08-.12.15-.04.25.03.04.02.07-.02.08-.11.04-.1.11-.06.19.02.05.05.09.06.15.01.06.04.07.12.06ZM14.5,20.22s-.05-.01-.06.02c-.01.05.01.09.06.11.08.05.1.13.08.21-.03.1-.08.2-.19.23-.13.03-.18.11-.22.23,0,.03-.03.08.03.09.04.01.08,0,.1-.05.04-.1.12-.17.2-.24.08-.06.16-.12.22-.21.05-.08.08-.17.03-.26-.05-.09-.13-.14-.25-.14ZM13.3,20.22c.12.01.23-.07.24-.16,0-.1-.08-.19-.21-.21-.11-.01-.24.08-.24.18,0,.1.08.18.21.19ZM13.33,19.62s.03-.08.04-.11c.02-.03.02-.06-.01-.08-.03-.02-.06-.02-.08,0-.03.02-.03.04-.02.07.07.15-.02.11-.1.09-.04-.01-.07-.02-.1.02-.01.02-.01.03,0,.05.03.03.06.04.1.02.07-.03.13-.04.15.08.02-.11.08-.1.15-.08.05.02.08.02.11-.02.01-.01.01-.03,0-.05-.03-.04-.07-.03-.11-.01-.04.01-.07.01-.13.03Z"/>
    <path class="cls-6" d="M13.09,20.5c-.1-.04-.21-.08-.31-.12-.05-.02-.11-.03-.15.02-.04.06-.02.11.02.16.04.05.08.1.15.14.14.06.22.31.15.44-.04.06-.1.03-.16.04-.1.01-.15,0-.15-.12,0-.13-.09-.21-.19-.27.02-.18-.22-.23-.22-.4-.07.02-.15.05-.14.13.01.1.06.19.16.22.06.02.11.05.16.08.03.06.06.12.08.18.02.06.06.14-.02.18-.08.04-.21-.01-.24-.09-.04-.09-.12-.15-.19-.21-.06-.06-.14-.11-.19-.18-.08-.1-.12-.2-.07-.33.06-.13.16-.2.3-.21.07,0,.14-.03.2.02.03.02.04-.01.06-.02.16-.13.31-.14.49-.03.06.04.12.07.18.1q.17.1.07.28ZM12.54,20.45c0-.13.11-.19.26-.14.07.02.14.06.21.08.03.01.05.01.06-.02.02-.03,0-.04-.03-.05-.1-.06-.2-.12-.3-.17s-.21-.04-.3.03c-.15.1-.15.22-.03.35.07.07.14.13.18.24.03.09.12.17.13.28,0,.05.05.05.08.05.03,0,.07,0,.08-.03.04-.12-.02-.27-.14-.32-.1-.04-.21-.19-.21-.3ZM11.84,20.49c0,.07.05.15.13.22.13.12.28.21.35.38.02.04.06.03.09.03.04,0,.03-.04.03-.07-.02-.1-.06-.21-.18-.23-.14-.02-.19-.12-.23-.23-.03-.1,0-.18.1-.23.03-.02.03-.06.04-.1,0,0-.02-.02-.04-.02-.14-.02-.29.1-.3.27Z"/>
    <path class="cls-6" d="M13.29,21.7c-.31,0-.62,0-.94,0-.08,0-.11-.02-.1-.1.01-.11-.05-.26.02-.34.07-.07.22-.02.33-.02.54,0,1.09,0,1.63,0,.09,0,.12.02.11.11,0,.08,0,.17,0,.26,0,.08-.02.1-.1.09-.32,0-.64,0-.95,0ZM14.26,21.61c.02-.09.01-.18,0-.27-.02-.04-.06-.02-.09-.02-.59,0-1.18,0-1.77,0-.03,0-.07-.02-.09.02,0,.09-.02.19.01.28.02.02.05.02.08.02h1.77s.06.01.08-.02Z"/>
    <path class="cls-2" d="M13.09,20.5q.1-.17-.07-.28s.03,0,.04-.02q.15.12.04.3h-.02Z"/>
    <path class="cls-2" d="M13.5,20.62c.02-.12-.04-.22-.08-.33.07.05.06.16.14.19-.07.02-.03.1-.07.14Z"/>
    <path class="cls-5" d="M14.06,20.05s-.07,0-.1,0c.03-.02.07-.02.1,0Z"/>
    <path class="cls-5" d="M14.11,21.07s0,.06,0,.09c-.03-.03-.01-.06,0-.09Z"/>
    <path class="cls-5" d="M14.34,20.16c-.02.05-.03.02-.05,0h.05Z"/>
    <path class="cls-5" d="M14.38,20.73s-.05,0-.07.01c.02,0,.04-.01.07-.01Z"/>
    <path class="cls-6" d="M4.6,13.2c.03-.2.07-.37.17-.52.3-.46.92-.41,1.22-.09.11.11.11.24.01.37-.12.17-.29.3-.45.45-.17.16-.3.33-.29.58,0,.17.07.3.17.43.16.21.36.36.57.51.03.02.07.03.07.07,0,.04-.05.03-.08.04-.38.11-.73.28-1.06.48-.12.08-.15.04-.21-.06-.39-.7-.82-1.36-1.37-1.95-.44-.49-.93-.91-1.53-1.19-.09-.04-.18-.08-.26-.12-.05-.02-.1-.06-.12-.12-.02-.07-.01-.15.09-.14.91.01,1.8.12,2.57.69.2.15.36.34.49.58ZM5.92,14.98s-.06-.06-.1-.09c-.19-.14-.37-.3-.5-.5-.2-.3-.19-.61.04-.89.06-.07.12-.13.18-.19.12-.11.24-.22.36-.34.16-.17.14-.28-.05-.41-.44-.32-1-.11-1.13.42-.03.13-.05.27-.05.4,0,.03.01.07-.03.07-.04,0-.04-.03-.05-.06-.03-.09-.06-.18-.11-.26-.21-.34-.51-.57-.87-.74-.48-.23-1-.33-1.53-.38-.16-.01-.32-.02-.47-.02-.03,0-.07-.02-.08.03,0,.04.02.06.05.08.02.01.05.03.08.04.13.07.28.13.41.2.73.41,1.3.99,1.8,1.64.34.45.64.92.91,1.41.02.04.04.1.11.06.33-.19.67-.36,1.03-.47Z"/>
    <path class="cls-6" d="M22.15,13.21c.13-.22.28-.41.47-.56.42-.34.91-.51,1.43-.61.38-.08.75-.11,1.14-.1.07,0,.14,0,.16.08.02.08-.05.11-.1.14-.03.02-.06.03-.09.05-.7.23-1.24.68-1.72,1.21-.56.6-1,1.29-1.39,2.01-.06.1-.09.12-.2.06-.33-.18-.67-.36-1.04-.45-.03,0-.07-.01-.08-.05,0-.04.03-.05.06-.07.18-.14.35-.28.5-.45.31-.35.3-.66-.03-.99-.15-.14-.3-.28-.44-.42-.2-.21-.17-.39.08-.55.49-.32,1.08-.08,1.22.5.02.07.03.14.04.22ZM20.84,14.96c.37.12.71.27,1.03.45.08.05.1,0,.13-.05.19-.34.39-.67.6-.99.44-.65.93-1.25,1.57-1.72.3-.22.61-.39.96-.51.05-.02.13-.04.12-.1-.01-.06-.09-.03-.14-.03-.26,0-.51.02-.77.06-.46.07-.91.18-1.32.41-.4.23-.75.51-.86.99,0,.02-.01.04-.04.04-.03,0-.03-.03-.03-.06,0-.12,0-.23-.03-.35-.09-.59-.62-.86-1.12-.56-.22.13-.24.27-.07.46.12.13.26.25.39.37.39.37.41.74.05,1.15-.14.15-.3.28-.47.43Z"/>
    <path class="cls-8" d="M15.66,12.71c.01.48-.07.94-.16,1.4-.01.07-.04.08-.11.07-1.01-.09-2.02-.09-3.02-.07-.38,0-.76.02-1.14.07-.07,0-.09,0-.11-.08-.1-.51-.18-1.02-.17-1.54,0-.38.08-.74.28-1.08.27-.45.85-.51,1.23-.31.15.08.27.2.3.39.02.15-.15.4-.3.43-.02,0-.03,0-.04-.02-.02-.02-.01-.03.01-.05.04-.03.09-.06.13-.1.17-.14.18-.28.04-.45-.16-.18-.37-.24-.6-.24-.3,0-.53.12-.7.38-.18.28-.25.59-.27.91-.03.54.04,1.08.15,1.6.02.09.07.08.13.07.79-.07,1.59-.08,2.38-.07.53.01,1.06.02,1.59.07.11.01.16,0,.18-.13.08-.46.15-.93.14-1.39,0-.39-.08-.76-.29-1.1-.27-.42-.9-.42-1.2-.17-.22.18-.21.39.02.56.04.02.14.05.1.11-.04.06-.09-.02-.13-.05-.29-.2-.29-.48,0-.69.35-.26,1.02-.23,1.29.22.18.3.27.61.29.95,0,.11,0,.21,0,.31Z"/>
    <path class="cls-5" d="M7.8,11.75c.28,0,.51.11.7.31.35.38.52.84.65,1.33.07.29.11.58.14.87,0,.07-.01.07-.07.08-.21.03-.41.04-.61.09-.02,0-.05,0-.06-.02-.01-.04.02-.04.05-.05.17-.04.34-.06.52-.08.06,0,.1-.01.09-.09-.05-.6-.18-1.19-.48-1.72-.13-.23-.3-.44-.55-.56-.31-.14-.61-.11-.89.07-.31.2-.31.53,0,.74.06.04.14.07.21.1.02.01.05.02.03.06-.01.03-.03.02-.05.01-.2-.08-.39-.18-.47-.39-.07-.19,0-.4.17-.53.17-.14.38-.21.62-.21Z"/>
    <path class="cls-6" d="M19.65,12.4c0,.18-.17.4-.34.44-.02,0-.04,0-.05-.02,0-.02,0-.04.02-.05.03-.02.07-.04.11-.07.23-.16.25-.42.05-.61-.3-.3-.87-.3-1.18,0-.42.4-.6.91-.73,1.45-.05.22-.08.43-.1.65,0,.07.01.1.09.1.14.01.28.04.42.06.02,0,.08,0,.07.05-.01.06-.05.02-.08.02-.15-.02-.3-.05-.46-.05-.1,0-.13-.04-.12-.13.05-.52.15-1.02.36-1.5.12-.26.27-.49.48-.69.34-.33.95-.34,1.29-.02.1.1.17.22.17.37Z"/>
    <path class="cls-6" d="M8.25,11.15c0-.25.11-.44.24-.61.19-.26.43-.48.68-.67.04-.03.07-.05.12-.04.49.15.98.3,1.4.61.12.09.22.2.27.35.01.03.05.08,0,.1-.06.02-.05-.05-.06-.07-.05-.13-.14-.23-.25-.31-.4-.31-.88-.45-1.35-.6-.04-.01-.07,0-.1.03-.27.22-.52.45-.71.75-.11.18-.21.36-.14.58,0,.02.01.05-.02.06-.03.01-.05-.01-.05-.04,0-.05-.04-.1-.03-.14Z"/>
    <path class="cls-6" d="M18.33,11.16s-.01.09-.03.14c0,.03-.02.04-.04.03-.02,0-.03-.02-.03-.05.08-.31-.08-.53-.24-.75-.17-.22-.38-.41-.59-.59-.03-.03-.06-.06-.11-.04-.47.14-.94.29-1.33.58-.13.09-.23.2-.28.35,0,.02,0,.06-.04.04-.03-.01-.03-.03-.02-.06.03-.14.12-.24.23-.33.19-.17.41-.28.64-.38.26-.11.52-.21.8-.28.05-.01.08-.02.13.01.31.25.61.52.82.88.07.12.11.26.12.43Z"/>
    <path class="cls-8" d="M13.37,15.63h1.05c.19,0,.29.1.29.29,0,.31,0,.61,0,.92,0,.19-.11.29-.3.29h-2.09c-.19,0-.28-.1-.28-.29,0-.31,0-.62,0-.93,0-.19.1-.28.28-.28.35,0,.7,0,1.05,0ZM13.37,15.69c-.33,0-.66,0-.99,0-.2,0-.28.08-.28.28,0,.27,0,.55,0,.82,0,.2.07.27.28.28.25,0,.51,0,.77,0,.4,0,.81,0,1.22,0,.19,0,.26-.08.26-.26v-.83c0-.22-.06-.28-.29-.28-.33,0-.65,0-.97,0Z"/>
    <path class="cls-6" d="M8.08,15.88s.05.04.07.05c.23.19.45.38.68.56.06.05.05.07,0,.12-.19.23-.37.46-.55.69-.04.05-.07.05-.12.01-.22-.19-.45-.38-.68-.56-.04-.03-.06-.05-.02-.1.19-.24.39-.49.58-.73.01-.01.02-.03.03-.04ZM8.1,16s-.03.02-.05.04c-.16.2-.31.4-.47.59-.04.05-.02.08.02.11.19.15.37.31.55.46.05.04.08.05.12,0,.15-.19.3-.39.46-.58.04-.05.05-.08,0-.12-.19-.15-.37-.31-.55-.46-.02-.02-.04-.03-.07-.04Z"/>
    <path class="cls-6" d="M18.61,15.89s.03.02.05.04c.19.25.38.49.57.74.03.04.03.06-.01.09-.24.19-.47.38-.71.57-.04.03-.07.03-.1-.01-.19-.24-.38-.48-.56-.73-.03-.03-.03-.05,0-.08.24-.19.48-.39.72-.59.01,0,.02-.01.04-.02ZM18.59,16.01s-.02.01-.04.02c-.2.16-.39.32-.59.48-.05.04-.03.06,0,.1.16.2.31.39.46.59.04.05.07.05.11,0,.19-.16.38-.31.57-.47.05-.04.05-.06.01-.11-.15-.19-.31-.39-.46-.59-.01-.02-.02-.05-.06-.04Z"/>
    <path class="cls-5" d="M20.73,16.35c.16,0,.29.14.29.33,0,.19-.12.34-.28.35-.16,0-.29-.14-.3-.33,0-.2.12-.35.29-.35ZM20.52,16.7c0,.15.09.27.2.27.12,0,.22-.13.22-.28,0-.15-.09-.26-.21-.26-.12,0-.21.12-.21.27Z"/>
    <path class="cls-6" d="M10.63,15.89c0,.18-.13.32-.3.32-.17,0-.3-.13-.31-.31,0-.19.12-.32.3-.32.18,0,.31.12.32.31ZM10.09,15.89c0,.14.1.24.23.24.13,0,.24-.1.24-.23,0-.13-.11-.25-.24-.25-.13,0-.23.11-.23.24Z"/>
    <path class="cls-5" d="M20.22,17.63c0-.2.12-.35.29-.35.16,0,.29.15.29.34,0,.19-.14.35-.3.35-.16,0-.27-.15-.28-.34ZM20.71,17.62c0-.15-.09-.26-.2-.26-.12,0-.21.11-.22.27,0,.16.09.28.21.28.11,0,.21-.13.21-.28Z"/>
    <path class="cls-5" d="M10.63,16.86c0,.18-.13.32-.3.32-.17,0-.3-.13-.31-.31,0-.19.12-.32.3-.32.18,0,.31.13.32.31ZM10.32,17.1c.13,0,.24-.1.24-.23,0-.13-.11-.25-.24-.25-.13,0-.23.11-.23.24s.1.24.23.24Z"/>
    <path class="cls-8" d="M6.46,16.6c0,.19-.13.35-.28.35-.15,0-.29-.17-.29-.36s.12-.34.28-.34c.16,0,.3.16.3.35ZM5.96,16.6c0,.15.1.28.22.28.11,0,.2-.12.2-.27,0-.16-.1-.28-.22-.28-.12,0-.2.11-.2.26Z"/>
    <path class="cls-5" d="M5.98,17.56c0-.14.05-.25.18-.31.1-.05.21-.02.28.06.11.12.13.26.07.42-.05.15-.17.22-.31.19-.14-.03-.23-.17-.23-.35ZM6.04,17.56c0,.14.12.29.22.29.1,0,.21-.14.21-.27,0-.15-.11-.29-.22-.29-.11,0-.21.13-.21.27Z"/>
    <path class="cls-8" d="M16.42,16.21c-.17,0-.32-.14-.32-.31,0-.17.13-.31.3-.32.18,0,.32.13.32.32,0,.17-.14.31-.31.31ZM16.65,15.89c0-.12-.11-.24-.23-.24-.12,0-.24.12-.24.25,0,.13.1.23.24.23.14,0,.24-.1.24-.24Z"/>
    <path class="cls-8" d="M16.42,16.55c.17,0,.3.14.3.31s-.14.32-.31.32c-.17,0-.31-.15-.31-.32,0-.18.14-.31.32-.31ZM16.41,17.1c.13,0,.24-.1.24-.24,0-.13-.11-.25-.24-.25-.12,0-.23.12-.23.25,0,.14.1.24.23.24Z"/>
    <path class="cls-1" d="M14.39,23.15c-.27.07-.52.02-.76-.08-.09-.04-.14-.03-.19.05-.3.4-.59.8-.89,1.2-.03.03-.07.07-.05.12.03.04.08.01.12.01.27,0,.53.01.78.13.27.13.38.34.3.63-.11.45-.41.72-.84.85-.06.02-.11,0-.16-.03-.45-.37-.71-.85-.8-1.43-.05-.34-.03-.68.1-1,.22-.56.75-.91,1.35-.89.36.01.67.13.95.35.02.02.04.03.07.06,0,0,.01.02.03.04Z"/>
    <path class="cls-11" d="M14.9,23.62c-.13-.19-.26-.36-.42-.51-.59-.56-1.46-.64-2.07-.18-.34.26-.52.61-.58,1.02-.09.67.08,1.28.5,1.82.09.12.2.22.32.32-.25.11-.66.04-.83-.14-.69-.69-.84-1.79-.33-2.58.34-.54.85-.8,1.47-.85.5-.04.98.03,1.44.25.24.11.5.17.8.1-.25.21-.31.47-.29.75Z"/>
    <path class="cls-4" d="M14.41,23.23c-.08.17-.21.24-.36.25-.15.01-.31-.01-.45-.06-.07-.02-.11,0-.15.05-.17.2-.34.41-.51.61-.02.03-.07.06-.04.11.02.04.07.02.1.02.14-.02.29-.03.43-.06.12-.01.24,0,.36.02.25.06.38.25.41.57.04.64-.23,1.09-.8,1.36-.66.32-1.3.29-1.97-.03.07-.04.12,0,.18.02.47.14.94.17,1.4,0,.44-.17.69-.48.78-.94.05-.27-.09-.52-.36-.64-.23-.1-.46-.13-.7-.13-.03,0-.07.02-.09-.02-.02-.03.02-.06.04-.08.27-.36.54-.72.8-1.08.05-.07.09-.08.17-.05.24.1.49.12.77.08Z"/>
    <path class="cls-2" d="M12.48,26.41c.18-.03.34-.03.48-.08.05-.01.1,0,.16.01.84.3,2.02-.27,2.2-1.22,0-.02.01-.05.02-.07.01-.03.03-.05.07-.04.03,0,.03.04.03.06,0,.08-.02.15-.05.22-.24.69-.76,1.07-1.43,1.25-.5.14-.98.08-1.49-.13Z"/>
    <path class="cls-2" d="M13.74,20.96c0-.11.04-.18.15-.23.11-.04.18-.15.2-.26.02-.12-.06-.19-.19-.19-.1,0-.18.06-.27.09-.03,0-.06.03-.08-.01-.01-.04.03-.05.05-.06.09-.05.18-.1.27-.15.15-.08.31-.04.4.1.06.08.06.17-.01.24-.17.16-.31.34-.36.57-.01.06-.06.03-.1.04-.04,0-.06-.01-.06-.06,0-.02,0-.05,0-.07Z"/>
    <path class="cls-2" d="M13.33,21.11c-.08,0-.11,0-.12-.06-.01-.05-.04-.1-.06-.15-.04-.08-.05-.15.06-.19.05-.02.05-.04.02-.08-.07-.1,0-.17.04-.25.02-.03.06-.03.09,0,.06.05.09.19.04.25-.04.05-.02.07.03.08.1.03.1.1.06.18-.03.06-.06.11-.07.17,0,.07-.07.05-.08.05Z"/>
    <path class="cls-2" d="M14.5,20.22c.12,0,.2.05.25.14.05.09.02.18-.03.26-.06.08-.14.14-.22.21-.08.07-.16.14-.2.24-.02.05-.06.06-.1.05-.06-.01-.03-.06-.03-.09.03-.11.08-.2.22-.23.11-.02.16-.13.19-.23.02-.08,0-.17-.08-.21-.05-.02-.07-.06-.06-.11,0-.03.04-.01.06-.02Z"/>
    <path class="cls-4" d="M13.3,20.22c-.12,0-.21-.09-.21-.19,0-.1.13-.19.24-.18.12.01.22.11.21.21-.01.1-.12.17-.24.16Z"/>
    <path class="cls-2" d="M13.33,19.62c.06-.01.09-.02.13-.03.04-.01.08-.02.11.01.01.01.01.03,0,.05-.03.04-.07.04-.11.02-.06-.02-.13-.03-.15.08-.02-.12-.08-.11-.15-.08-.04.02-.07.01-.1-.02-.01-.01-.01-.03,0-.05.03-.04.06-.03.1-.02.08.03.17.06.1-.09-.02-.03-.01-.06.02-.07.03-.02.06-.02.08,0,.03.02.03.05.01.08-.01.03-.02.06-.04.11Z"/>
    <path class="cls-2" d="M12.54,20.45c0,.1.11.26.21.3.12.05.19.2.14.32-.02.04-.05.03-.08.03-.04,0-.08,0-.08-.05-.01-.11-.1-.19-.13-.28-.04-.11-.11-.17-.18-.24-.12-.13-.11-.25.03-.35.09-.07.2-.08.3-.03s.2.11.3.17c.02.01.05.02.03.05-.01.03-.04.03-.06.02-.07-.03-.14-.06-.21-.08-.15-.05-.26.01-.26.14Z"/>
    <path class="cls-2" d="M11.84,20.49c0-.17.16-.29.3-.26.02,0,.04.01.04.02,0,.04,0,.08-.04.1-.1.05-.14.13-.1.23.04.11.08.21.23.23.11.02.15.13.18.23,0,.03.02.06-.03.07-.03,0-.07.01-.09-.03-.07-.17-.22-.26-.35-.38-.07-.07-.12-.15-.13-.22Z"/>
    <path class="cls-3" d="M12.42,20.81c-.05-.03-.1-.07-.16-.08-.1-.03-.15-.12-.16-.22-.01-.08.06-.1.14-.13,0,.17.24.22.22.4,0,0-.02.02-.03.03Z"/>
    <path class="cls-3" d="M14.26,21.34c.01.09.02.18,0,.27-.64,0-1.28,0-1.93,0-.03-.09-.01-.19-.01-.28.65,0,1.3,0,1.94,0Z"/>
    <path class="cls-2" d="M14.26,21.34h-1.94s.06-.02.09-.02c.59,0,1.18,0,1.77,0,.03,0,.07-.02.09.02Z"/>
    <path class="cls-2" d="M12.33,21.62c.64,0,1.28,0,1.93,0-.02.03-.05.02-.08.02h-1.77s-.06,0-.08-.02Z"/>
    <path class="cls-1" d="M5.92,14.98c-.36.12-.7.28-1.02.47-.07.04-.09-.01-.11-.06-.28-.49-.57-.96-.91-1.41-.51-.65-1.07-1.24-1.8-1.64-.13-.07-.28-.14-.41-.2-.03-.01-.06-.02-.08-.04-.03-.02-.06-.04-.05-.08,0-.05.05-.03.08-.03.16,0,.32.01.47.02.53.05,1.04.15,1.53.38.35.17.65.4.87.74.05.08.09.17.11.26,0,.03,0,.07.05.06.04,0,.03-.04.03-.07,0-.14.02-.27.05-.4.13-.53.69-.74,1.13-.42.19.14.21.24.05.41-.11.12-.24.23-.36.34-.06.06-.12.12-.18.19-.22.27-.23.59-.04.89.13.2.31.36.5.5.04.02.07.04.1.09Z"/>
    <path class="cls-1" d="M20.84,14.96c.17-.14.33-.27.48-.43.36-.41.34-.78-.05-1.15-.13-.12-.26-.24-.39-.37-.18-.18-.16-.33.07-.46.49-.3,1.03-.03,1.12.56.02.11.03.23.03.35,0,.03,0,.05.03.06.02,0,.03-.02.04-.04.11-.48.46-.76.86-.99.41-.24.86-.34,1.32-.41.26-.04.51-.05.77-.06.05,0,.13-.03.14.03.01.06-.07.08-.12.1-.35.12-.67.29-.96.51-.64.47-1.13,1.07-1.57,1.72-.22.32-.42.65-.6.99-.03.06-.05.1-.13.05-.32-.17-.66-.33-1.03-.45Z"/>
    <path class="cls-2" d="M13.37,15.69h.97c.23,0,.29.06.29.28v.83c0,.19-.07.26-.26.26-.4,0-.81,0-1.22,0-.26,0-.52,0-.77,0-.21,0-.28-.08-.28-.28,0-.27,0-.55,0-.82,0-.2.07-.28.28-.28.33,0,.66,0,.99,0ZM13.36,15.95h-.78c-.14,0-.21.07-.21.2,0,.15,0,.3,0,.45,0,.13.07.2.19.2.54,0,1.08,0,1.62,0,.13,0,.18-.07.18-.2,0-.14,0-.28,0-.42,0-.18-.05-.23-.23-.23-.26,0-.52,0-.77,0Z"/>
    <path class="cls-1" d="M8.1,16s.05.03.07.05c.18.15.37.31.55.46.05.04.05.07,0,.12-.16.19-.31.38-.46.58-.04.06-.07.05-.12,0-.18-.16-.37-.31-.55-.46-.04-.03-.06-.06-.02-.11.16-.2.31-.4.47-.59.01-.02.03-.03.05-.04Z"/>
    <path class="cls-1" d="M18.59,16.01s.05.02.06.04c.15.2.3.4.46.59.04.05.03.07-.01.11-.19.15-.38.31-.57.47-.04.04-.07.04-.11,0-.15-.2-.3-.4-.46-.59-.03-.04-.04-.07,0-.1.2-.16.4-.32.59-.48.01,0,.03-.02.04-.02Z"/>
    <path class="cls-4" d="M20.52,16.7c0-.15.1-.27.21-.27.11,0,.21.12.21.26,0,.15-.1.29-.22.28-.11,0-.2-.13-.2-.27Z"/>
    <path class="cls-4" d="M10.09,15.89c0-.13.1-.24.23-.24.13,0,.25.12.24.25,0,.13-.11.23-.24.23-.13,0-.23-.11-.23-.24Z"/>
    <path class="cls-9" d="M20.71,17.62c0,.15-.1.27-.21.28-.12,0-.21-.12-.21-.28,0-.16.09-.27.22-.27.11,0,.2.12.2.26Z"/>
    <path class="cls-4" d="M10.32,17.1c-.13,0-.23-.11-.23-.24,0-.14.1-.24.23-.24.13,0,.24.12.24.25,0,.13-.11.24-.24.23Z"/>
    <path class="cls-4" d="M5.96,16.6c0-.15.09-.26.2-.26.12,0,.22.12.22.28,0,.14-.09.26-.2.27-.12,0-.22-.13-.22-.28Z"/>
    <path class="cls-2" d="M6.04,17.56c0-.13.1-.27.21-.27.12,0,.23.14.22.29,0,.13-.1.27-.21.27-.11,0-.23-.15-.22-.29Z"/>
    <path class="cls-4" d="M16.65,15.89c0,.14-.1.25-.24.25s-.23-.1-.24-.23c0-.13.11-.25.24-.25.12,0,.23.11.23.24Z"/>
    <path class="cls-4" d="M16.41,17.1c-.13,0-.23-.1-.23-.24s.11-.25.23-.25c.13,0,.24.12.24.25,0,.14-.11.24-.24.24Z"/>
    <path class="cls-8" d="M13.36,15.95h.77c.17,0,.23.05.23.23,0,.14,0,.28,0,.42,0,.13-.06.2-.18.2-.54,0-1.08,0-1.62,0-.12,0-.19-.07-.19-.2,0-.15,0-.3,0-.45,0-.14.07-.2.21-.2.26,0,.52,0,.78,0ZM13.37,16.73c.26,0,.52,0,.77,0,.1,0,.16-.04.15-.15,0-.14,0-.27,0-.41,0-.09-.04-.14-.13-.14h-1.59c-.1,0-.14.04-.13.14,0,.14,0,.27,0,.4,0,.12.05.17.16.16.26,0,.52,0,.77,0Z"/>
    <path class="cls-10" d="M13.37,16.73c-.25,0-.51,0-.77,0-.11,0-.17-.04-.16-.16,0-.13,0-.26,0-.4,0-.09.04-.14.13-.14h1.59c.1,0,.13.05.13.14,0,.14,0,.27,0,.41,0,.11-.05.15-.15.15-.26,0-.51,0-.77,0Z"/>
  </g>
</svg>